<svg width="11" height="55" viewBox="0 0 11 55" fill="none" xmlns="http://www.w3.org/2000/svg">
<path d="M9.94873 54.1904L9.45068 54.1758C9.42139 54.083 9.38477 53.9194 9.34082 53.6851C9.26758 53.3091 9.20166 53.082 9.14307 53.0039C9.08447 52.9209 8.94287 52.8208 8.71826 52.7036L4.84375 51.2241L0.288086 49.4883C0.292969 49.3271 0.29541 49.1733 0.29541 49.0269L0.29541 48.6973L0.427246 48.6313L3.44482 47.3569C4.08447 47.0688 4.70703 46.8101 5.3125 46.5806C5.91309 46.3511 6.40381 46.1533 6.78467 45.9873C7.01416 45.8896 7.3584 45.7554 7.81738 45.5845C8.06641 45.4966 8.37891 45.3623 8.75488 45.1816C8.95996 45.084 9.07959 45.0107 9.11377 44.9619C9.18701 44.874 9.23584 44.7324 9.26025 44.5371C9.28467 44.3369 9.34082 44.1221 9.42871 43.8926C9.58984 43.8682 9.70947 43.856 9.7876 43.856C9.82178 43.856 9.87549 43.8584 9.94873 43.8633C9.94873 44.2246 9.93164 44.6226 9.89746 45.0571C9.86328 45.4917 9.84619 45.8823 9.84619 46.229C9.84619 46.6147 9.85107 46.8931 9.86084 47.064L9.92676 48.3091L9.94141 48.668C9.77051 48.668 9.60693 48.6606 9.45068 48.646L9.2749 47.833C9.21143 47.5889 9.1626 47.4473 9.12842 47.4082C9.07959 47.3594 9.02344 47.335 8.95996 47.335C8.89648 47.335 8.83057 47.3472 8.76221 47.3716L8.04443 47.6646L6.60889 48.2432L6.60156 51.041C6.83594 51.1436 7.40967 51.356 8.32275 51.6782C8.58154 51.771 8.75732 51.8174 8.8501 51.8174C8.97705 51.8174 9.06738 51.7832 9.12109 51.7148C9.21387 51.6025 9.27979 51.3877 9.31885 51.0703C9.32861 51.0264 9.35547 50.853 9.39941 50.5503C9.5752 50.5454 9.69727 50.543 9.76562 50.543C9.81934 50.543 9.87549 50.5479 9.93408 50.5576C9.93408 50.8604 9.89258 51.583 9.80957 52.7256L9.86084 53.0259C9.91943 53.3872 9.94873 53.7314 9.94873 54.0586L9.94873 54.1904ZM5.83252 50.748C5.84717 49.6055 5.85449 48.9316 5.85449 48.7266L5.84717 48.5435C5.4126 48.6899 4.90723 48.8804 4.33105 49.1147C3.75 49.3491 3.30811 49.5396 3.00537 49.686L5.83252 50.748ZM10.0146 43.6216L9.42871 43.6069C9.39941 43.4897 9.37256 43.3481 9.34814 43.1821C9.3042 42.8647 9.24072 42.606 9.15771 42.4058C9.04541 42.3374 8.93799 42.2935 8.83545 42.2739C8.56201 42.2349 8.15918 42.2153 7.62695 42.2153L4.51416 42.23C4.19189 42.23 3.34961 42.2471 1.9873 42.2812C1.62109 42.291 1.39404 42.3154 1.30615 42.3545C1.27685 42.3691 1.25244 42.3936 1.23291 42.4277C1.1792 42.5059 1.14746 42.6523 1.13769 42.8672C1.13281 42.96 1.10596 43.1992 1.05713 43.585L0.537109 43.6069L0.500488 41.9663L0.419921 39.5713L0.412597 39.2856C0.407714 39.2271 0.405273 39.1685 0.405273 39.1099C0.405273 39.061 0.407714 38.9316 0.412597 38.7217L0.412597 38.2529C0.407714 37.8818 0.463866 37.479 0.581054 37.0444C0.620116 36.8931 0.703124 36.6929 0.830077 36.4438C0.952148 36.1948 1.11084 35.98 1.30615 35.7993C1.49658 35.6138 1.71142 35.4771 1.95068 35.3892C2.18994 35.3013 2.44385 35.2573 2.7124 35.2573C3.01025 35.2573 3.27881 35.3232 3.51807 35.4551C3.75244 35.5869 3.96973 35.7871 4.16992 36.0557C4.26758 36.1924 4.42871 36.5073 4.65332 37.0005C4.81934 36.2632 5.12451 35.7017 5.56885 35.3159C6.0083 34.9302 6.49902 34.7373 7.04101 34.7373C7.36328 34.7373 7.70019 34.7983 8.05176 34.9204C8.31543 35.0083 8.55957 35.1572 8.78418 35.3672C9.08203 35.6455 9.30664 35.9409 9.45801 36.2534C9.60937 36.561 9.73389 36.9883 9.83154 37.5352C9.88037 37.8086 9.90478 38.2236 9.90478 38.7803L9.87549 40.0254C9.87549 40.5527 9.8999 41.1802 9.94873 41.9077C9.9585 42.1128 9.98047 42.6841 10.0146 43.6216ZM4.45557 40.2085C4.48486 40.0132 4.49951 39.7837 4.49951 39.52C4.49951 38.7876 4.36523 38.2334 4.09668 37.8574C3.82324 37.4814 3.35449 37.2935 2.69043 37.2935C2.22168 37.2935 1.83105 37.4717 1.51855 37.8281C1.20605 38.1846 1.0498 38.7217 1.0498 39.4395C1.0498 39.6445 1.07666 39.918 1.13037 40.2598C1.24268 40.2598 1.40381 40.2549 1.61377 40.2451C2.02881 40.2207 2.60986 40.2085 3.35693 40.2085L3.97217 40.2158C4.07959 40.2158 4.24072 40.2134 4.45557 40.2085ZM9.12109 40.1206C9.25293 39.8032 9.31885 39.5078 9.31885 39.2344C9.31885 38.6777 9.23584 38.2236 9.06982 37.8721C8.89893 37.5205 8.66211 37.2642 8.35937 37.103C8.05664 36.9419 7.67822 36.8613 7.22412 36.8613C6.75537 36.8613 6.37939 36.9492 6.09619 37.125C5.70557 37.3691 5.44434 37.6646 5.3125 38.0112C5.17578 38.3579 5.10742 38.8779 5.10742 39.5713C5.10742 39.8789 5.12939 40.0913 5.17334 40.2085L6.07422 40.2085L7.1582 40.2158L8.84277 40.1938C8.9209 40.189 9.01367 40.1646 9.12109 40.1206ZM5.09277 33.3311C4.4873 33.3311 3.87939 33.2139 3.26904 32.9795C2.82959 32.8086 2.42676 32.5693 2.06055 32.2617C1.69433 31.9541 1.36963 31.5684 1.08642 31.1045C0.798339 30.6406 0.593261 30.167 0.47119 29.6836C0.344237 29.2002 0.280761 28.6606 0.280761 28.0649C0.280761 27.0493 0.47119 26.168 0.85205 25.4209C1.23291 24.6738 1.74805 24.0854 2.39746 23.6558C3.24219 23.0991 4.12842 22.8208 5.05615 22.8208C6.43799 22.8208 7.62207 23.292 8.6084 24.2344C9.59473 25.1719 10.0879 26.478 10.0879 28.1528C10.0879 28.5679 10.061 28.9561 10.0073 29.3174C9.96826 29.5908 9.91455 29.8301 9.84619 30.0352C9.72412 30.4062 9.65332 30.6138 9.63379 30.6577C9.33105 31.1899 9.021 31.6172 8.70361 31.9395C8.38623 32.2617 8.02734 32.5352 7.62695 32.7598C7.40234 32.8818 6.99707 33.021 6.41113 33.1772C6.03516 33.2798 5.5957 33.3311 5.09277 33.3311ZM1.00586 28.3433C1.00586 28.7681 1.10596 29.144 1.30615 29.4712C1.50146 29.7983 1.71875 30.0449 1.95801 30.2109C2.36328 30.4893 2.80762 30.687 3.29101 30.8042C3.76953 30.9214 4.35303 30.98 5.0415 30.98C5.46142 30.98 5.76172 30.9629 5.94238 30.9287C6.00098 30.9189 6.10107 30.9043 6.24267 30.8848C6.604 30.8408 6.86767 30.7896 7.03369 30.731C7.65381 30.521 8.03711 30.3721 8.18359 30.2842C8.43262 30.1377 8.6792 29.9204 8.92334 29.6323C9.05029 29.4858 9.16748 29.2734 9.2749 28.9951C9.37744 28.7168 9.42871 28.4385 9.42871 28.1602C9.42871 27.6328 9.30664 27.1445 9.0625 26.6953C8.81348 26.2412 8.39355 25.8774 7.80273 25.604C7.21191 25.3306 6.44287 25.1938 5.4956 25.1938C5.10498 25.1938 4.57519 25.2207 3.90625 25.2744L3.76709 25.311C3.72803 25.3257 3.62793 25.3501 3.4668 25.3843C2.66601 25.5649 2.05566 25.9116 1.63574 26.4243C1.21582 26.9321 1.00586 27.5718 1.00586 28.3433ZM1.08642 21.8247L0.507811 21.8467C0.502928 21.7588 0.500487 21.6685 0.500487 21.5757C0.500487 21.3315 0.507811 21.0752 0.522459 20.8066C0.556639 20.1621 0.573729 19.7837 0.573729 19.6714C0.573729 19.2808 0.566405 18.8999 0.551756 18.5288C0.532225 18.1528 0.520018 17.8208 0.515135 17.5327C0.510252 17.2397 0.505369 17.042 0.500487 16.9395L0.588377 16.9468L1.02051 16.9321L1.0791 16.9321C1.11816 17.2056 1.13769 17.4888 1.13769 17.7817C1.13769 18.0552 1.1914 18.2358 1.29883 18.3237C1.36719 18.3823 1.65771 18.4116 2.17041 18.4116C2.32666 18.4116 2.45361 18.4092 2.55127 18.4043L2.81494 18.397L3.50342 18.4116L4.08935 18.3677L5.35644 18.397L7.19482 18.3018C7.72705 18.2773 8.16894 18.1602 8.52051 17.9502C8.7793 17.7939 8.98193 17.5742 9.12842 17.291C9.33349 16.8809 9.43603 16.478 9.43603 16.0825C9.43603 15.6138 9.375 15.1768 9.25293 14.7715C9.18457 14.5322 9.07471 14.3076 8.92334 14.0977C8.76709 13.8828 8.62549 13.7339 8.49853 13.6509C8.22998 13.4751 7.97851 13.353 7.74414 13.2847C7.42187 13.1919 6.92138 13.1455 6.24267 13.1455C5.06103 13.1455 3.73047 13.209 2.25097 13.3359L1.86279 13.3652C1.57471 13.3799 1.38183 13.4336 1.28418 13.5264C1.13281 13.6826 1.05713 13.8584 1.05713 14.0537L1.07178 14.7422L1.0498 14.8374L0.493162 14.8228L0.493162 14.2441L0.551756 12.8452C0.551756 12.3765 0.529783 11.9297 0.485838 11.5049L0.500486 11.3804C0.661619 11.3511 0.773924 11.3364 0.8374 11.3364C0.891111 11.3364 0.957029 11.3462 1.03515 11.3657C1.08887 11.5464 1.1206 11.7368 1.13037 11.937C1.17431 12.2642 1.21094 12.4448 1.24023 12.479C1.29883 12.5474 1.38916 12.5815 1.51123 12.5815C1.59912 12.5815 1.72607 12.5742 1.89209 12.5596C2.01416 12.5449 2.22656 12.5376 2.5293 12.5376C2.70019 12.5376 2.83447 12.5376 2.93213 12.5376C3.02978 12.5327 3.12988 12.5278 3.23242 12.5229C3.58398 12.5083 3.94043 12.4961 4.30176 12.4863L5.78857 12.4131C6.78467 12.4131 7.45117 12.4473 7.78808 12.5156C8.125 12.584 8.39111 12.6768 8.58642 12.7939C8.87939 12.9746 9.15039 13.231 9.39941 13.563C9.64355 13.895 9.83887 14.3101 9.98535 14.8081C10.127 15.3062 10.1978 15.8872 10.1978 16.5513C10.1978 17.3081 10.0977 17.9575 9.89746 18.4995C9.69238 19.0415 9.42627 19.4517 9.09912 19.73C8.76709 20.0034 8.3374 20.1914 7.81006 20.2939C7.44873 20.3672 6.93115 20.4038 6.25732 20.4038L2.76367 20.3965C1.93848 20.3965 1.47217 20.4355 1.36474 20.5137C1.21338 20.6211 1.12793 20.9556 1.1084 21.5171C1.1084 21.6392 1.10107 21.7417 1.08642 21.8247ZM0.0610332 9.91553L0.0610332 9.46143C0.114744 9.42725 0.153807 9.40283 0.178221 9.38818C0.412596 9.25146 0.566404 9.14648 0.639646 9.07324C0.659178 9.00977 0.668943 8.67529 0.668943 8.06982C0.668943 7.69385 0.666502 7.35937 0.661619 7.06641L0.639646 6.91992L0.632322 6.03369L0.64697 4.37842L0.64697 2.11523L0.581052 1.68311C0.537107 1.61963 0.41992 1.55127 0.22949 1.47803C0.185545 1.4585 0.124509 1.43164 0.0463844 1.39746L0.0390602 1.0752C0.0390602 1.02637 0.0415016 0.953125 0.0463844 0.855469C0.383298 0.850586 0.891111 0.848144 1.56982 0.848144L2.22168 0.84082L2.59521 0.848144C2.72217 0.848144 2.83203 0.85791 2.9248 0.877441C2.98828 1.07764 3.02734 1.25342 3.04199 1.40478C2.85156 1.53174 2.57568 1.6709 2.21435 1.82227C1.85303 1.96875 1.65283 2.06152 1.61377 2.10059C1.55029 2.15918 1.50879 2.22754 1.48926 2.30566C1.46484 2.42285 1.45263 2.94043 1.45263 3.8584C1.45263 3.99512 1.4624 4.16602 1.48193 4.37109C1.67236 4.40039 1.82861 4.41504 1.95068 4.41504L2.93213 4.40771L5.08545 4.40771L7.40722 4.37842L8.35937 4.38574C8.69629 4.38574 8.95019 4.35644 9.12109 4.29785C9.15527 4.21973 9.18701 4.07568 9.21631 3.86572C9.22119 3.82666 9.26025 3.646 9.33349 3.32373C9.36767 3.17725 9.40674 3.04785 9.45068 2.93555C9.62646 2.91113 9.73388 2.89893 9.77295 2.89893C9.81689 2.89893 9.88037 2.90625 9.96338 2.9209C9.96826 3.02832 9.9707 3.11621 9.9707 3.18457C9.9707 3.6875 9.95361 4.11475 9.91943 4.46631C9.88037 4.81787 9.86084 5.45508 9.86084 6.37793C9.86084 6.52441 9.89013 6.9541 9.94873 7.66699C9.96826 7.94531 9.97803 8.12598 9.97803 8.20898C9.90478 8.21387 9.84863 8.21875 9.80957 8.22363L9.64111 8.23096L9.58252 8.23096C9.44092 8.12353 9.33594 7.9209 9.26758 7.62305C9.14551 7.11523 9.03564 6.76367 8.93799 6.56836C8.84521 6.51953 8.72314 6.49023 8.57178 6.48047C7.98584 6.44629 7.05322 6.4292 5.77392 6.4292L3.00537 6.46582C2.24365 6.46582 1.78222 6.48047 1.62109 6.50977C1.57715 6.51953 1.54541 6.53662 1.52588 6.56103C1.50146 6.58545 1.48681 6.61963 1.48193 6.66357C1.4624 6.81494 1.45263 7.30811 1.45263 8.14307C1.45263 8.60205 1.49658 8.90967 1.58447 9.06592C1.70654 9.27588 2.03857 9.59082 2.58056 10.0107C2.73681 10.1328 2.81494 10.2231 2.81494 10.2817C2.69775 10.5063 2.60254 10.6504 2.52929 10.7139C2.21191 10.5625 1.57715 10.3525 0.624998 10.084C0.346678 10.0059 0.158689 9.94971 0.0610332 9.91553Z" fill="url(#paint0_linear)"/>
<defs>
<linearGradient id="paint0_linear" x1="2.06382" y1="54" x2="3.73202" y2="-6.51138" gradientUnits="userSpaceOnUse">
<stop stop-color="#8A5E1D"/>
<stop offset="1" stop-color="#406F2B"/>
</linearGradient>
</defs>
</svg>
