<svg width="259" height="52" viewBox="0 0 259 52" fill="none" xmlns="http://www.w3.org/2000/svg">
<path d="M0.591797 48.8125C0.938151 48.6146 1.2474 48.5156 1.51953 48.5156H2.37305C2.54622 48.5156 2.8431 48.5033 3.26367 48.4785C5.16862 48.3053 6.29427 48.1322 6.64062 47.959C7.50651 47.4889 8.2487 46.6725 8.86719 45.5098C10.1536 42.9863 11.6009 39.4115 13.209 34.7852C13.9759 32.5833 14.4583 31.2474 14.6562 30.7773C15.2747 29.293 15.8685 27.7344 16.4375 26.1016L19.9258 16.3418C20.4701 14.8079 21.7812 11.2949 23.8594 5.80273C24.3789 4.41732 25.0098 2.56185 25.752 0.236328L26.8281 0.162109L28.127 0.199219C29.1908 2.30208 30.1309 4.56576 30.9473 6.99023C31.3926 8.27669 32.1224 10.194 33.1367 12.7422L38.7773 27.9941L41.7832 36.2695C43.3665 40.9701 44.4056 43.8646 44.9004 44.9531C45.3952 46.0169 45.8529 46.722 46.2734 47.0684C46.3971 47.1673 46.8548 47.3158 47.6465 47.5137C48.4629 47.7116 49.0319 47.86 49.3535 47.959C50.4915 48.2806 51.2832 48.5527 51.7285 48.7754C51.8275 49.0475 51.877 49.2578 51.877 49.4062C51.877 49.5299 51.8398 49.7155 51.7656 49.9629C50.974 49.9876 50.4173 50 50.0957 50C48.834 50 46.6074 49.9629 43.416 49.8887L39.7051 49.7773L35.2148 49.8516C34.918 49.8516 34.6087 49.8392 34.2871 49.8145C33.9902 49.765 33.7305 49.7402 33.5078 49.7402H32.6914C32.4193 49.7155 32.1719 49.6413 31.9492 49.5176C31.9492 49.1712 32.0111 48.8372 32.1348 48.5156C32.4316 48.3672 32.7038 48.2806 32.9512 48.2559L36.8477 47.9961C37.862 47.9466 38.6289 47.8105 39.1484 47.5879C39.2969 47.1426 39.3711 46.8086 39.3711 46.5859C39.3711 46.1406 39.0495 44.9902 38.4062 43.1348C37.9609 41.8978 37.5651 40.7227 37.2188 39.6094C36.8971 38.4961 35.5859 34.8346 33.2852 28.625C32.2708 28.4518 31.3802 28.3652 30.6133 28.3652L22.6719 28.4395L20.334 28.4023C19.4928 28.4023 18.5651 28.4642 17.5508 28.5879C17.2292 29.3301 17.0189 29.862 16.9199 30.1836L13.6543 40.3887C12.2689 44.2728 11.5762 46.4128 11.5762 46.8086C11.5762 47.0312 11.6875 47.4023 11.9102 47.9219C12.4297 48.0703 13.1224 48.2064 13.9883 48.3301L19.0352 48.7754C19.3073 48.998 19.4434 49.196 19.4434 49.3691C19.4434 49.4928 19.4062 49.6784 19.332 49.9258C18.2188 49.9505 17.3652 49.9629 16.7715 49.9629C14.7923 49.9629 12.4915 49.901 9.86914 49.7773C8.6569 49.7279 7.79102 49.7031 7.27148 49.7031C6.75195 49.7031 5.84896 49.7279 4.5625 49.7773C3.72135 49.8268 3.11523 49.8516 2.74414 49.8516C2.15039 49.8516 1.38346 49.8145 0.443359 49.7402V49.5176C0.443359 49.3444 0.492839 49.1094 0.591797 48.8125ZM18.293 26.5469C20.9401 26.6953 23.9583 26.7695 27.3477 26.7695C29.2773 26.7695 30.972 26.7077 32.4316 26.584C32.1842 25.6191 31.8997 24.7161 31.5781 23.875C29.9701 19.5703 29.0794 17.1953 28.9062 16.75L25.5293 8.17773L25.1582 7.50977C25.0098 7.80664 24.4655 9.08073 23.5254 11.332C21.9421 15.1914 20.804 18.1973 20.1113 20.3496C19.7897 21.3145 19.4557 22.2793 19.1094 23.2441C18.763 24.1842 18.5404 24.8522 18.4414 25.248C18.3672 25.6191 18.2435 26.0026 18.0703 26.3984L18.293 26.5469ZM53.5098 4.02148V2.87109C53.9303 2.77214 54.2643 2.71029 54.5117 2.68555L58 2.5C60.8945 2.2526 64.1354 2.05469 67.7227 1.90625C69.1576 1.85677 71.4212 1.83203 74.5137 1.83203C78.7194 1.83203 81.7995 2.14128 83.7539 2.75977C86.599 3.67513 88.7142 5.06055 90.0996 6.91602C91.5098 8.74674 92.2148 10.7878 92.2148 13.0391C92.2148 16.7005 89.6048 19.7806 84.3848 22.2793L84.1992 22.5762C86.8711 23.2936 89.0605 24.2956 90.7676 25.582C92.4746 26.8685 93.7858 28.4395 94.7012 30.2949C95.3691 31.6556 95.7031 33.4368 95.7031 35.6387C95.7031 39.3249 94.0208 42.6152 90.6562 45.5098C87.3164 48.3796 82.7025 49.8145 76.8145 49.8145H71.2852L65.6816 50C60.7337 50.0495 57.8392 50.0742 56.998 50.0742C56.1322 50.0742 55.2786 50.0371 54.4375 49.9629V49.5547C54.4375 49.2578 54.4993 49.0475 54.623 48.9238C54.7715 48.7754 55.056 48.6517 55.4766 48.5527C58.569 47.9095 60.3132 47.4766 60.709 47.2539C61.1296 47.0065 61.4141 46.623 61.5625 46.1035C61.8594 45.1139 62.0078 42.5658 62.0078 38.459C62.0078 38.0879 61.9954 37.6178 61.9707 37.0488C61.9212 35.3913 61.8965 34.4388 61.8965 34.1914V30.332C61.8965 23.8008 61.8223 18.0983 61.6738 13.2246L61.6367 5.76562L61.5996 4.83789C59.4967 4.54102 57.6413 4.35547 56.0332 4.28125C54.9941 4.25651 54.153 4.16992 53.5098 4.02148ZM68.2422 22.7988C69.4792 23.0462 70.778 23.1699 72.1387 23.1699C77.4824 23.1699 81.1068 21.9948 83.0117 19.6445C84.9167 17.2943 85.8691 14.9564 85.8691 12.6309C85.8691 11.5918 85.696 10.5404 85.3496 9.47656C85.028 8.38802 84.4342 7.41081 83.5684 6.54492C82.7272 5.67904 81.6758 5.03581 80.4141 4.61523C78.2617 3.89779 76.0599 3.53906 73.8086 3.53906C71.7057 3.53906 69.7513 3.77409 67.9453 4.24414C67.9206 4.76367 67.9082 5.14714 67.9082 5.39453C67.9082 5.64193 67.9329 6.34701 67.9824 7.50977C68.0072 8.25195 68.0195 8.99414 68.0195 9.73633L67.9082 14.2266L67.9453 16.8984L68.2051 22.1309L68.2422 22.7988ZM76.9629 48.0332C79.4121 47.86 81.4655 47.3405 83.123 46.4746C83.89 46.0788 84.793 45.3737 85.832 44.3594C86.8958 43.3203 87.7122 42.0833 88.2812 40.6484C88.875 39.2135 89.1719 37.8281 89.1719 36.4922C89.1719 35.4779 88.9616 34.2285 88.541 32.7441C88.1452 31.2598 87.4525 29.9609 86.4629 28.8477C85.498 27.7096 84.0508 26.7819 82.1211 26.0645C80.1914 25.3223 78.0638 24.9512 75.7383 24.9512C71.2357 24.9512 68.7122 25.0378 68.168 25.2109C68.1432 25.7799 68.1309 26.2005 68.1309 26.4727L68.168 27.8457L68.1309 30.6289V33.7832C68.2051 39.597 68.3411 43.0358 68.5391 44.0996C68.737 45.1634 69.4049 46.0788 70.543 46.8457C71.7057 47.6126 73.8457 48.0085 76.9629 48.0332ZM102.754 26.2871C102.754 23.7637 103.051 21.5247 103.645 19.5703C104.263 17.5911 105.29 15.4512 106.725 13.1504C108.16 10.8496 109.891 8.93229 111.92 7.39844C113.949 5.83984 116.757 4.4668 120.344 3.2793C122.867 2.46289 126.059 2.05469 129.918 2.05469C132.516 2.05469 135.051 2.40104 137.525 3.09375C140.024 3.78646 142.288 4.7513 144.316 5.98828C146.345 7.22526 148.374 9.13021 150.402 11.7031C151.812 13.4844 152.876 15.4017 153.594 17.4551C154.534 20.1517 155.004 22.9349 155.004 25.8047C155.004 29.0703 154.682 31.7793 154.039 33.9316C153.421 36.084 152.369 38.2116 150.885 40.3145C149.722 41.9473 147.73 43.8275 144.91 45.9551C143.03 47.39 140.692 48.5527 137.896 49.4434C135.101 50.3092 132.083 50.7422 128.842 50.7422C125.551 50.7422 122.62 50.3587 120.047 49.5918C117.474 48.8249 115.322 47.8971 113.59 46.8086C111.883 45.6953 110.114 44.0625 108.283 41.9102C106.477 39.7578 105.104 37.3828 104.164 34.7852C103.224 32.1875 102.754 29.3548 102.754 26.2871ZM128.508 49.3691C130.586 49.3691 132.738 49.0846 134.965 48.5156C137.216 47.9219 139.208 46.957 140.939 45.6211C142.671 44.2604 144.02 42.7266 144.984 41.0195C145.974 39.2878 146.766 37.0736 147.359 34.377C147.953 31.6803 148.25 28.9837 148.25 26.2871C148.25 22.9225 147.755 19.5951 146.766 16.3047C145.999 13.806 144.749 11.5794 143.018 9.625C141.286 7.64583 139.195 6.12435 136.746 5.06055C134.297 3.97201 131.687 3.42773 128.916 3.42773C126.665 3.42773 124.463 3.79883 122.311 4.54102C120.158 5.2832 118.389 6.23568 117.004 7.39844C115.618 8.53646 114.332 10.1693 113.145 12.2969C111.957 14.3997 111.054 16.7253 110.436 19.2734C109.817 21.8216 109.508 24.0729 109.508 26.0273C109.508 28.0807 109.817 30.4062 110.436 33.0039C111.054 35.6016 111.895 37.8529 112.959 39.7578C114.048 41.6628 115.371 43.3574 116.93 44.8418C118.513 46.3014 120.282 47.4271 122.236 48.2188C124.191 48.9857 126.281 49.3691 128.508 49.3691ZM180.312 2.35156C180.436 2.77214 180.498 3.09375 180.498 3.31641C180.498 3.46484 180.461 3.6875 180.387 3.98438C179.743 4.15755 179.224 4.24414 178.828 4.24414C178.655 4.24414 178.358 4.23177 177.938 4.20703C177.542 4.15755 177.22 4.13281 176.973 4.13281C175.835 4.13281 174.932 4.35547 174.264 4.80078C173.818 5.07292 173.546 5.43164 173.447 5.87695L173.076 10.1074L173.188 28.4766C173.212 35.2057 173.435 39.3991 173.855 41.0566C174.276 42.6895 174.981 44.0378 175.971 45.1016C176.96 46.1654 178.445 47.0436 180.424 47.7363C182.428 48.429 184.37 48.7754 186.25 48.7754C190.456 48.7754 193.672 48.1693 195.898 46.957C198.15 45.7448 199.758 44.0749 200.723 41.9473C201.712 39.7949 202.207 36.5417 202.207 32.1875C202.207 32.0638 202.17 31.0742 202.096 29.2188V28.1426C202.096 27.7467 202.12 26.9798 202.17 25.8418C202.219 24.679 202.244 23.9987 202.244 23.8008L201.688 13.1504C201.514 9.56315 201.304 7.44792 201.057 6.80469C200.834 6.16146 200.5 5.67904 200.055 5.35742C199.09 4.66471 197.259 4.04622 194.562 3.50195C194.439 3.1556 194.365 2.79688 194.34 2.42578C195.305 2.32682 196.257 2.27734 197.197 2.27734C198.187 2.27734 199.226 2.31445 200.314 2.38867C201.947 2.51237 202.838 2.57422 202.986 2.57422L208.85 2.38867L210 2.42578L209.963 3.76172C206.92 4.15755 205.102 4.6276 204.508 5.17188C203.914 5.69141 203.617 6.66862 203.617 8.10352C203.617 8.87044 203.667 10.5404 203.766 13.1133L204.025 20.7949L203.988 23.8379L204.1 27.6973C204.1 32.5462 203.964 35.849 203.691 37.6055C203.296 40.0547 202.727 41.9967 201.984 43.4316C201.267 44.8665 200.215 46.1654 198.83 47.3281C197.445 48.4661 195.589 49.4062 193.264 50.1484C190.963 50.8906 188.687 51.2617 186.436 51.2617C182.898 51.2617 180.35 51.0143 178.791 50.5195C175.946 49.6536 173.682 48.528 172 47.1426C170.318 45.7572 169.155 44.3717 168.512 42.9863C167.646 41.1556 167.213 38.4837 167.213 34.9707V32.4102L167.102 22.0195L167.213 13.6328V7.99219C167.213 6.55729 167.015 5.55534 166.619 4.98633C166.347 4.59049 165.951 4.39258 165.432 4.39258L163.242 4.42969C161.609 4.42969 160.57 4.25651 160.125 3.91016C160.051 3.6875 160.014 3.48958 160.014 3.31641C160.014 3.09375 160.088 2.92057 160.236 2.79688C160.508 2.59896 160.842 2.5 161.238 2.5H162.203L164.689 2.46289H170.553L180.312 2.35156ZM213.859 8.06641L215.381 2.46289C215.48 1.7207 215.616 1.25065 215.789 1.05273C215.962 0.830078 216.16 0.71875 216.383 0.71875C216.828 0.71875 217.335 1.25065 217.904 2.31445C218.325 3.08138 218.671 3.57617 218.943 3.79883C219.215 3.99674 219.611 4.13281 220.131 4.20703L220.502 4.16992L222.098 4.31836L230.855 4.42969L241.209 4.39258H244.252L250.004 4.28125C250.251 4.28125 250.561 4.30599 250.932 4.35547C252.614 4.50391 253.653 4.57812 254.049 4.57812C254.42 4.57812 254.717 4.45443 254.939 4.20703C255.014 4.10807 255.422 3.26693 256.164 1.68359C256.486 0.966146 256.882 0.607422 257.352 0.607422C257.549 0.607422 257.797 0.656901 258.094 0.755859C258.217 1.25065 258.279 1.69596 258.279 2.0918L258.242 3.57617L258.279 6.73047C258.279 7.4974 258.217 9.97135 258.094 14.1523C258.094 14.4245 258.044 14.6719 257.945 14.8945C257.673 15.0677 257.438 15.1543 257.24 15.1543C257.042 15.1543 256.869 15.0677 256.721 14.8945C256.572 14.6966 256.387 14.1152 256.164 13.1504C255.669 10.9238 255.051 9.32812 254.309 8.36328C253.814 7.74479 253.096 7.29948 252.156 7.02734C251.241 6.75521 249.027 6.61914 245.514 6.61914C242.693 6.61914 240.603 6.66862 239.242 6.76758C239.193 7.75716 239.168 8.66016 239.168 9.47656L239.465 32.5215C239.465 33.4368 239.415 35.1686 239.316 37.7168L239.354 42.6523L239.316 45.3984C239.316 46.2643 239.465 46.8828 239.762 47.2539C240.059 47.625 240.863 47.9837 242.174 48.3301C244.45 48.8991 245.971 49.2454 246.738 49.3691C247.208 49.4186 247.592 49.5176 247.889 49.666V50.7793L242.619 50.6309C239.725 50.6061 237.548 50.5443 236.088 50.4453L230.67 50.7051L226.699 50.9277C225.586 50.9277 224.906 50.903 224.658 50.8535L224.139 50.6309C224.188 50.0618 224.299 49.7031 224.473 49.5547C224.646 49.3815 225.104 49.2454 225.846 49.1465C226.885 48.998 228.109 48.7383 229.52 48.3672C230.93 47.9714 231.857 47.5755 232.303 47.1797C232.55 46.957 232.723 46.5859 232.822 46.0664C233.045 44.9779 233.156 42.8379 233.156 39.6465V33.3379L233.008 19.5703L232.859 16.6016L232.822 6.69336C231.264 6.52018 229.272 6.43359 226.848 6.43359C223.285 6.43359 221.12 6.65625 220.354 7.10156C219.141 7.79427 217.335 9.82292 214.936 13.1875C214.144 14.4492 213.451 15.0801 212.857 15.0801L212.523 15.0059C212.424 14.8574 212.375 14.7214 212.375 14.5977C212.375 14.3008 212.573 13.4102 212.969 11.9258C213.464 10.0208 213.76 8.73438 213.859 8.06641Z" fill="#111111"/>
</svg>
