<svg width="185" height="56" viewBox="0 0 185 56" fill="none" xmlns="http://www.w3.org/2000/svg">
<path d="M56.5273 36.2886L56.7812 37.4946C56.7812 38.0024 56.5168 38.6055 55.9878 39.3037C54.5913 41.1234 52.3485 43.2181 49.2593 45.5879C46.1912 47.9365 43.9272 49.1108 42.4673 49.1108C41.0073 49.1108 39.8647 48.6877 39.0396 47.8413C38.2144 46.9738 37.8018 45.9899 37.8018 44.8896C37.8018 43.5778 39.1771 40.679 41.9277 36.1934C46.0537 29.5283 51.3223 21.7419 57.7334 12.834C56.3792 14.2305 52.7822 17.9967 46.9424 24.1328C34.0143 37.6745 26.4606 45.3446 24.2812 47.1431C23.9215 47.4393 23.3926 47.5874 22.6943 47.5874C22.0173 47.5874 21.2979 47.3123 20.5361 46.7622C19.7744 46.1909 19.3936 45.5562 19.3936 44.8579V44.6992C19.4782 43.8105 21.52 39.4624 25.519 31.6548C29.5181 23.8472 32.8717 17.637 35.5801 13.0244C31.5811 17.4255 27.5397 22.3343 23.4561 27.751C15.6908 38.0342 10.0096 46.7939 6.4126 54.0303C6.09521 54.7074 5.70378 55.0459 5.23828 55.0459C4.77279 55.0459 4.0957 54.9295 3.20703 54.6968C1.34505 54.189 0.414062 53.3003 0.414062 52.0308C0.414062 51.269 1.96924 48.5501 5.07959 43.874C8.18994 39.1768 11.7975 34.0563 15.9023 28.5127C20.0072 22.9479 24.2601 17.5947 28.6611 12.4531C34.7337 5.34375 38.6375 1.78906 40.3726 1.78906C40.6476 1.78906 40.9121 1.86312 41.166 2.01123C41.4199 2.13818 41.5786 2.20166 41.6421 2.20166C41.7056 2.20166 41.769 2.16992 41.8325 2.10645C42.1076 1.7679 42.6471 1.59863 43.4512 1.59863C44.2764 1.59863 45.0698 1.75732 45.8315 2.07471C46.6144 2.39209 47.0059 2.75179 47.0059 3.15381C47.0059 3.40771 45.9479 5.42839 43.832 9.21582C36.7438 21.7842 31.9831 30.417 29.5498 35.1143C31.8773 32.3001 35.1992 28.5656 39.5156 23.9106C43.8532 19.2557 48.4023 14.6113 53.1631 9.97754C59.3626 3.96842 63.0654 0.963867 64.2715 0.963867C64.7581 0.963867 65.3717 1.06966 66.1123 1.28125C67.4242 1.66211 68.6831 1.85254 69.8892 1.85254C70.2277 1.91602 70.5133 2.06413 70.7461 2.29688C71 2.50846 71.127 2.73063 71.127 2.96338C71.127 3.19613 71.0635 3.38656 70.9365 3.53467C64.0599 12.6753 58.2624 20.7368 53.5439 27.7192C48.8255 34.7017 45.9162 39.4201 44.8159 41.8745C47.0376 41.409 50.349 38.7536 54.75 33.9082C54.9404 33.6543 55.078 33.485 55.1626 33.4004C55.2472 33.3158 55.3213 33.2311 55.3848 33.1465C55.7445 32.7233 56.0195 32.9878 56.21 33.9399C56.2946 34.4901 56.3475 34.8815 56.3687 35.1143C56.411 35.3258 56.4427 35.5586 56.4639 35.8125C56.5062 36.0452 56.5273 36.2039 56.5273 36.2886Z" fill="#FDAC28"/>
<path d="M78.8394 13.1514C78.8394 14.3574 78.2786 15.5741 77.1572 16.8013C76.0358 18.0073 74.8615 18.6104 73.6343 18.6104C72.4282 18.6104 71.8252 17.9756 71.8252 16.7061C71.8252 15.4365 72.3542 14.2305 73.4121 13.0879C74.4912 11.9242 75.6761 11.3423 76.9668 11.3423C77.5381 11.3423 77.993 11.501 78.3315 11.8184C78.6701 12.1357 78.8394 12.5801 78.8394 13.1514ZM73.6978 40.8589C73.6978 41.4937 73.6343 41.9486 73.5073 42.2236C72.4705 44.3395 70.8201 46.0534 68.5562 47.3652C66.2922 48.6559 64.3244 49.3013 62.6528 49.3013C60.9813 49.3013 59.5425 48.7406 58.3364 47.6191C57.1304 46.4977 56.5273 45.3551 56.5273 44.1914C56.5273 43.0277 57.1092 41.335 58.2729 39.1133C59.4367 36.8916 60.6004 34.8392 61.7642 32.9561C62.9279 31.0729 63.5098 30.0573 63.5098 29.9092C63.5098 29.7399 63.2876 29.4225 62.8433 28.957C62.4201 28.4915 62.2085 28.153 62.2085 27.9414C62.2085 27.7087 62.6423 27.1268 63.5098 26.1958C64.3984 25.2437 65.467 24.3127 66.7153 23.4028C67.9849 22.4718 68.9476 22.0063 69.6035 22.0063C70.2806 22.0063 70.8836 22.3026 71.4126 22.895C71.9416 23.4875 72.2061 24.027 72.2061 24.5137C72.2061 25.0003 69.6882 29.5812 64.6523 38.2563C64.5889 38.3833 64.409 38.6689 64.1128 39.1133C63.8377 39.5365 63.6156 39.8962 63.4463 40.1924C63.2982 40.4674 63.1183 40.806 62.9067 41.208C62.4836 42.0544 62.272 42.7632 62.272 43.3345C62.272 44.0539 62.7586 44.4136 63.7319 44.4136C64.7052 44.4136 65.7103 44.0856 66.7471 43.4297C67.805 42.7526 68.7148 42.012 69.4766 41.208C71.4655 39.071 72.5975 38.0024 72.8726 38.0024C73.4227 38.0024 73.6978 38.9546 73.6978 40.8589Z" fill="#FDAC28"/>
<path d="M74.8721 41.6523L74.8403 42.1602C74.8403 42.6891 75.0413 43.144 75.4434 43.5249C75.8454 43.9058 76.2157 44.0962 76.5542 44.0962C79.0933 44.0962 81.3361 43.7153 83.2827 42.9536C85.2505 42.1919 86.2344 41.4302 86.2344 40.6685C86.2344 40.3088 85.8747 40.002 85.1553 39.748C84.457 39.473 83.2616 39.145 81.5688 38.7642C79.8973 38.3621 78.6807 38.0553 77.9189 37.8438C77.1572 37.611 76.5542 37.3994 76.1099 37.209C75.6655 37.0186 75.2106 36.7541 74.7451 36.4155C73.7507 35.7173 73.2534 34.6805 73.2534 33.3052C73.2534 31.9087 73.7612 30.5334 74.7769 29.1792C75.8136 27.8039 77.1043 26.6296 78.6489 25.6562C80.1935 24.6829 81.8545 23.826 83.6318 23.0854C87.1442 21.6255 90.0959 20.8955 92.4868 20.8955C94.8354 20.8955 96.2848 21.4033 96.835 22.4189C97.0042 22.7786 97.0889 23.1807 97.0889 23.625V23.8472C97.0889 24.9686 96.8455 25.8467 96.3589 26.4814C95.8934 27.1162 95.1423 27.6875 94.1055 28.1953C93.0898 28.7031 92.2752 28.957 91.6616 28.957C91.0692 28.957 90.6883 28.9147 90.519 28.8301C90.3709 28.7454 90.244 28.6396 90.1382 28.5127C90.0324 28.3646 89.8949 28.2588 89.7256 28.1953C89.5775 28.1318 89.5034 27.9731 89.5034 27.7192C89.5034 27.4653 89.6092 27.2114 89.8208 26.9575C90.0324 26.6825 90.1805 26.3968 90.2651 26.1006C88.8687 26.1641 87.4087 26.492 85.8853 27.0845C84.3618 27.6558 83.05 28.3011 81.9497 29.0205C80.8706 29.7399 79.9714 30.4276 79.252 31.0835C78.5326 31.7394 78.1729 32.2261 78.1729 32.5435C78.1729 32.8397 78.6595 33.083 79.6328 33.2734C84.0127 34.141 86.8903 34.8921 88.2656 35.5269C89.641 36.1616 90.5931 36.881 91.1221 37.6851C91.651 38.4891 91.9155 39.2191 91.9155 39.875C91.9155 41.2292 91.376 42.5093 90.2969 43.7153C89.2178 44.9214 87.8848 45.9053 86.2979 46.667C82.8913 48.3385 79.9185 49.1743 77.3794 49.1743C74.8615 49.1743 73.1159 48.7829 72.1426 48C71.1904 47.2383 70.7144 46.3285 70.7144 45.2705C70.7144 44.2126 70.9788 43.2393 71.5078 42.3506C72.0579 41.4408 72.7562 40.9858 73.6025 40.9858C74.4489 40.9858 74.8721 41.208 74.8721 41.6523Z" fill="#FDAC28"/>
<path d="M98.8027 41.6523L98.771 42.1602C98.771 42.6891 98.972 43.144 99.374 43.5249C99.776 43.9058 100.146 44.0962 100.485 44.0962C103.024 44.0962 105.267 43.7153 107.213 42.9536C109.181 42.1919 110.165 41.4302 110.165 40.6685C110.165 40.3088 109.805 40.002 109.086 39.748C108.388 39.473 107.192 39.145 105.5 38.7642C103.828 38.3621 102.611 38.0553 101.85 37.8438C101.088 37.611 100.485 37.3994 100.041 37.209C99.5962 37.0186 99.1413 36.7541 98.6758 36.4155C97.6813 35.7173 97.1841 34.6805 97.1841 33.3052C97.1841 31.9087 97.6919 30.5334 98.7075 29.1792C99.7443 27.8039 101.035 26.6296 102.58 25.6562C104.124 24.6829 105.785 23.826 107.562 23.0854C111.075 21.6255 114.027 20.8955 116.417 20.8955C118.766 20.8955 120.215 21.4033 120.766 22.4189C120.935 22.7786 121.02 23.1807 121.02 23.625V23.8472C121.02 24.9686 120.776 25.8467 120.29 26.4814C119.824 27.1162 119.073 27.6875 118.036 28.1953C117.021 28.7031 116.206 28.957 115.592 28.957C115 28.957 114.619 28.9147 114.45 28.8301C114.302 28.7454 114.175 28.6396 114.069 28.5127C113.963 28.3646 113.826 28.2588 113.656 28.1953C113.508 28.1318 113.434 27.9731 113.434 27.7192C113.434 27.4653 113.54 27.2114 113.751 26.9575C113.963 26.6825 114.111 26.3968 114.196 26.1006C112.799 26.1641 111.339 26.492 109.816 27.0845C108.292 27.6558 106.981 28.3011 105.88 29.0205C104.801 29.7399 103.902 30.4276 103.183 31.0835C102.463 31.7394 102.104 32.2261 102.104 32.5435C102.104 32.8397 102.59 33.083 103.563 33.2734C107.943 34.141 110.821 34.8921 112.196 35.5269C113.572 36.1616 114.524 36.881 115.053 37.6851C115.582 38.4891 115.846 39.2191 115.846 39.875C115.846 41.2292 115.307 42.5093 114.228 43.7153C113.148 44.9214 111.815 45.9053 110.229 46.667C106.822 48.3385 103.849 49.1743 101.31 49.1743C98.7922 49.1743 97.0465 48.7829 96.0732 48C95.1211 47.2383 94.645 46.3285 94.645 45.2705C94.645 44.2126 94.9095 43.2393 95.4385 42.3506C95.9886 41.4408 96.6868 40.9858 97.5332 40.9858C98.3796 40.9858 98.8027 41.208 98.8027 41.6523Z" fill="#FDAC28"/>
<path d="M139.904 13.1514C139.904 14.3574 139.343 15.5741 138.222 16.8013C137.1 18.0073 135.926 18.6104 134.699 18.6104C133.493 18.6104 132.89 17.9756 132.89 16.7061C132.89 15.4365 133.419 14.2305 134.477 13.0879C135.556 11.9242 136.741 11.3423 138.031 11.3423C138.603 11.3423 139.057 11.501 139.396 11.8184C139.735 12.1357 139.904 12.5801 139.904 13.1514ZM134.762 40.8589C134.762 41.4937 134.699 41.9486 134.572 42.2236C133.535 44.3395 131.885 46.0534 129.621 47.3652C127.357 48.6559 125.389 49.3013 123.717 49.3013C122.046 49.3013 120.607 48.7406 119.401 47.6191C118.195 46.4977 117.592 45.3551 117.592 44.1914C117.592 43.0277 118.174 41.335 119.337 39.1133C120.501 36.8916 121.665 34.8392 122.829 32.9561C123.992 31.0729 124.574 30.0573 124.574 29.9092C124.574 29.7399 124.352 29.4225 123.908 28.957C123.485 28.4915 123.273 28.153 123.273 27.9414C123.273 27.7087 123.707 27.1268 124.574 26.1958C125.463 25.2437 126.531 24.3127 127.78 23.4028C129.049 22.4718 130.012 22.0063 130.668 22.0063C131.345 22.0063 131.948 22.3026 132.477 22.895C133.006 23.4875 133.271 24.027 133.271 24.5137C133.271 25.0003 130.753 29.5812 125.717 38.2563C125.653 38.3833 125.473 38.6689 125.177 39.1133C124.902 39.5365 124.68 39.8962 124.511 40.1924C124.363 40.4674 124.183 40.806 123.971 41.208C123.548 42.0544 123.336 42.7632 123.336 43.3345C123.336 44.0539 123.823 44.4136 124.796 44.4136C125.77 44.4136 126.775 44.0856 127.812 43.4297C128.869 42.7526 129.779 42.012 130.541 41.208C132.53 39.071 133.662 38.0024 133.937 38.0024C134.487 38.0024 134.762 38.9546 134.762 40.8589Z" fill="#FDAC28"/>
<path d="M153.996 23.8154C154.63 23.8154 155.276 24.1011 155.932 24.6724C156.609 25.2437 156.947 26.1217 156.947 27.3066C156.947 28.4704 156.535 29.9938 155.709 31.877C154.884 33.7389 153.752 35.6432 152.313 37.5898C150.875 39.5153 149.288 41.335 147.553 43.0488C145.839 44.7415 143.977 46.138 141.967 47.2383C139.978 48.3174 138.169 48.8569 136.54 48.8569C134.91 48.8569 133.598 48.3491 132.604 47.3335C131.631 46.2967 131.144 44.8685 131.144 43.0488C131.144 41.208 131.588 39.1768 132.477 36.9551C133.387 34.7334 134.551 32.7762 135.968 31.0835C137.386 29.3696 138.92 27.8356 140.57 26.4814C144.019 23.7096 147.045 22.3237 149.647 22.3237C150.811 22.3237 151.689 22.6094 152.282 23.1807C152.493 23.3711 152.599 23.5404 152.599 23.6885V23.8789C152.895 23.8366 153.361 23.8154 153.996 23.8154ZM150.79 28.0366H150.568C149.827 28.0366 149.457 27.4971 149.457 26.418C147.912 26.9258 146.294 27.8145 144.601 29.084C142.908 30.3535 141.396 31.8558 140.062 33.5908C137.354 37.0609 135.979 39.9914 135.937 42.3823C135.937 43.5672 136.37 44.1597 137.238 44.1597C138.105 44.1597 139.396 43.5884 141.11 42.4458C142.824 41.3032 144.516 39.674 146.188 37.5581C147.881 35.4422 149.14 33.612 149.965 32.0674C150.811 30.5016 151.234 29.4437 151.234 28.8936C151.234 28.3223 151.086 28.0366 150.79 28.0366Z" fill="#FDAC28"/>
<path d="M172.816 43.1123C172.816 44.0433 173.451 44.5088 174.721 44.5088C175.398 44.5088 176.244 44.1702 177.26 43.4932C178.297 42.8161 179.228 42.0755 180.053 41.2715C182.253 39.0921 183.502 38.0024 183.798 38.0024C184.348 38.0024 184.623 38.7959 184.623 40.3828C184.623 41.9697 184.126 43.0594 183.131 43.6519C180.106 46.3813 177.768 48.0423 176.117 48.6348C175.186 48.9521 174.16 49.1003 173.039 49.0791C171.917 49.0579 170.806 48.5713 169.706 47.6191C168.606 46.667 168.056 45.5138 168.056 44.1597C168.056 42.7843 168.415 41.2292 169.135 39.4941C169.854 37.7591 170.584 36.278 171.325 35.0508C172.086 33.8024 173.017 32.3636 174.118 30.7344C175.218 29.084 175.8 28.0578 175.863 27.6558L175.8 27.5923C175.102 27.6558 173.367 29.0311 170.595 31.7183C167.844 34.4054 165.569 36.7435 163.771 38.7324C161.972 40.7214 159.825 43.3768 157.328 46.6987C156.63 47.6086 156.059 48.0635 155.614 48.0635C155.17 48.0635 154.577 47.9259 153.837 47.6509C153.075 47.3547 152.61 47.1431 152.44 47.0161C152.271 46.8892 152.187 46.6987 152.187 46.4448C152.187 46.1909 152.261 45.8841 152.409 45.5244C152.557 45.1436 152.705 44.8368 152.853 44.604C152.98 44.3501 153.202 43.9692 153.52 43.4614C153.837 42.9536 154.461 41.8851 155.392 40.2559C156.344 38.6055 157.794 36.151 159.74 32.8926C161.687 29.6341 162.851 27.6663 163.231 26.9893C164.035 25.5928 164.691 24.5771 165.199 23.9424C166.151 22.7363 167.759 22.1333 170.023 22.1333C170.531 22.1333 170.785 22.4507 170.785 23.0854C170.785 24.0799 169.865 25.9525 168.024 28.7031L166.691 30.7026C170.351 26.6401 173.441 24.0693 175.958 22.9902C177.186 22.4613 178.286 22.1968 179.259 22.1968C180.254 22.1968 181.037 22.4613 181.608 22.9902C182.2 23.5192 182.497 24.1117 182.497 24.7676C182.497 25.4023 182.274 26.1746 181.83 27.0845C181.386 27.9731 180.931 28.7772 180.465 29.4966C180.021 30.1948 179.429 31.0835 178.688 32.1626C177.947 33.2417 177.545 33.8341 177.482 33.9399C177.418 34.0246 177.249 34.2785 176.974 34.7017C176.72 35.1037 176.53 35.3999 176.403 35.5903C176.276 35.7808 176.064 36.1193 175.768 36.606C175.472 37.0715 175.229 37.4629 175.038 37.7803C174.869 38.0977 174.647 38.4891 174.372 38.9546C174.118 39.4201 173.906 39.8221 173.737 40.1606C173.589 40.4992 173.43 40.8695 173.261 41.2715C172.965 42.012 172.816 42.6257 172.816 43.1123Z" fill="#FDAC28"/>
</svg>
