<svg width="11" height="75" viewBox="0 0 11 75" fill="none" xmlns="http://www.w3.org/2000/svg">
<path d="M0.961914 74.6411L0.405273 74.6484L0.515137 72.8979L0.507812 72.1143L0.507812 71.8286C0.507812 71.5308 0.490722 71.0645 0.456543 70.4297C0.432129 70.0684 0.419922 69.8413 0.419922 69.7485C0.419922 69.1333 0.454101 68.6694 0.522461 68.3569C0.620117 67.8784 0.776367 67.5 0.991211 67.2217C1.20605 66.9385 1.51367 66.6968 1.91406 66.4966C2.30957 66.2915 2.67822 66.189 3.02002 66.189C3.86963 66.189 4.56055 66.4575 5.09277 66.9946C5.62012 67.5269 5.88379 68.2007 5.88379 69.0161C5.88379 69.2993 5.84961 69.5703 5.78125 69.8291C5.71289 70.083 5.61035 70.3223 5.47363 70.5469C5.33203 70.5713 5.13672 70.5835 4.8877 70.5835C4.89746 70.4663 4.90478 70.3613 4.90967 70.2686C4.91455 70.1709 4.91699 70.0854 4.91699 70.0122C4.91699 69.5972 4.80225 69.248 4.57275 68.9648C4.2749 68.5889 3.7915 68.4009 3.12256 68.4009C2.64404 68.4009 2.25342 68.4839 1.95068 68.6499C1.64307 68.811 1.43555 69.0039 1.32812 69.2285C1.18164 69.541 1.1084 69.8926 1.1084 70.2832C1.1084 70.6494 1.16211 70.9106 1.26953 71.0669C1.33301 71.106 1.39404 71.1353 1.45264 71.1548L4.90234 71.1035L5.19531 71.1182L5.50293 71.0962C5.57129 71.0913 5.67139 71.0889 5.80322 71.0889L6.40381 71.0889L7.36328 71.0815L8.50586 71.0962C8.66699 71.0962 8.88428 71.0815 9.15771 71.0522L9.34082 69.5947C9.45801 69.5752 9.55078 69.5654 9.61914 69.5654C9.69238 69.5654 9.79492 69.5776 9.92676 69.6021C9.94629 69.7241 9.95605 69.8169 9.95605 69.8804C9.95605 70.0317 9.93896 70.3174 9.90478 70.7373C9.86572 71.1572 9.84619 71.6357 9.84619 72.1729C9.84619 72.7783 9.88525 73.3545 9.96338 73.9014C9.97803 73.9941 9.99023 74.1406 10 74.3408C9.8584 74.3604 9.75342 74.3701 9.68506 74.3701C9.64111 74.3701 9.57275 74.3652 9.47998 74.3555L9.3335 73.9087C9.24072 73.6011 9.12842 73.335 8.99658 73.1104C8.85498 73.0664 8.72559 73.0444 8.6084 73.0444C8.55957 73.0444 8.50342 73.0469 8.43994 73.0518C8.28857 73.0566 8.07617 73.0591 7.80273 73.0591L5.74463 73.0811L3.42285 73.1616C2.31934 73.1958 1.72363 73.2227 1.63574 73.2422C1.49414 73.2764 1.38428 73.335 1.30615 73.418C1.22314 73.501 1.16455 73.6401 1.13037 73.8354C1.06201 74.2407 1.00586 74.5093 0.961914 74.6411ZM9.50195 65.1562C9.43359 65.0293 9.38477 64.8413 9.35547 64.5923C9.32129 64.3433 9.26758 64.1187 9.19434 63.9185C9.09668 63.894 9.02588 63.8794 8.98193 63.8745C8.91357 63.8647 8.6792 63.8599 8.27881 63.8599L6.64551 63.8672L5.7666 63.8379L5.08545 63.8525L4.68994 63.8379C4.15771 63.8232 3.65967 63.8159 3.1958 63.8159C2.18018 63.8159 1.53076 63.8281 1.24756 63.8525L1.15967 64.2847C1.13525 64.6802 1.11084 64.9438 1.08643 65.0757L0.646972 65.0903L0.566406 65.061C0.527343 64.8169 0.507812 64.5923 0.507812 64.3872C0.507812 64.2749 0.505371 64.0479 0.500488 63.7061C0.529785 63.3545 0.544433 63.1641 0.544433 63.1348L0.52246 62.7466L0.478515 61.8311C0.419921 61.2598 0.390624 60.6567 0.390624 60.022C0.390624 59.021 0.646972 58.2251 1.15967 57.6343C1.66748 57.0435 2.25098 56.748 2.91016 56.748C3.40332 56.748 3.85254 56.9092 4.25781 57.2314C4.6582 57.5488 4.96094 58.0396 5.16601 58.7036C5.26855 58.645 5.38818 58.5669 5.5249 58.4692C5.81787 58.2642 6.06689 58.0981 6.27197 57.9712L8.16894 56.7993C8.67187 56.5063 8.96728 56.3159 9.05517 56.228C9.13818 56.1353 9.23096 55.9473 9.3335 55.6641C9.4165 55.4443 9.49951 55.2759 9.58252 55.1587C9.66553 55.1294 9.73877 55.1147 9.80225 55.1147C9.84619 55.1147 9.90234 55.1172 9.9707 55.1221L9.9707 55.3198L9.97803 55.4663L9.92676 55.8472L9.92676 56.1475C9.90234 56.3037 9.89014 56.4966 9.89014 56.7261L9.88281 57.4585C9.88281 57.5122 9.8999 57.6831 9.93408 57.9712C9.94873 58.103 9.96094 58.208 9.9707 58.2861L9.4873 58.5352C9.12109 58.7402 8.84766 58.8843 8.66699 58.9673C8.19336 59.1821 7.43896 59.5508 6.40381 60.0732C5.92529 60.3174 5.6543 60.4883 5.59082 60.5859C5.48828 60.7324 5.43701 60.9839 5.43701 61.3403C5.43701 61.438 5.44189 61.604 5.45166 61.8384C5.59326 61.853 5.76172 61.8604 5.95703 61.8604L7.58301 61.8311L8.95996 61.8677C9.04297 61.731 9.10644 61.5527 9.15039 61.333C9.22852 60.9521 9.32129 60.625 9.42871 60.3516C9.66797 60.3516 9.84863 60.3613 9.9707 60.3809C9.96582 60.4736 9.96338 60.5322 9.96338 60.5566L9.97803 60.8569C9.88525 61.9067 9.83887 62.5293 9.83887 62.7246C9.83887 62.8516 9.84131 62.9419 9.84619 62.9956L9.91211 64.0063C9.94629 64.314 9.96338 64.5947 9.96338 64.8486L9.96338 65.1636C9.84131 65.1733 9.76318 65.1782 9.729 65.1782C9.67529 65.1782 9.59961 65.1709 9.50195 65.1562ZM4.76318 61.8604C4.77295 61.626 4.77783 61.4551 4.77783 61.3477C4.77783 60.5176 4.62891 59.9292 4.33105 59.5825C4.0332 59.2358 3.63525 59.0625 3.13721 59.0625C2.82959 59.0625 2.5415 59.1064 2.27295 59.1943C1.99951 59.2773 1.79687 59.3823 1.66504 59.5093C1.47461 59.6899 1.33057 59.9268 1.23291 60.2197C1.15967 60.4346 1.12305 60.7788 1.12305 61.2524C1.12305 61.4771 1.13525 61.6699 1.15967 61.8311L1.29883 61.8384L2.2876 61.8311L2.88818 61.8457L3.68652 61.8384C3.91113 61.8481 4.20166 61.8555 4.5581 61.8604L4.76318 61.8604ZM5.09277 54.9316C4.4873 54.9316 3.87939 54.8145 3.26904 54.5801C2.82959 54.4092 2.42676 54.1699 2.06055 53.8623C1.69434 53.5547 1.36963 53.1689 1.08642 52.7051C0.798339 52.2412 0.593261 51.7676 0.47119 51.2842C0.344237 50.8008 0.280761 50.2612 0.280761 49.6655C0.280761 48.6499 0.47119 47.7686 0.85205 47.0215C1.23291 46.2744 1.74805 45.686 2.39746 45.2563C3.24219 44.6997 4.12842 44.4214 5.05615 44.4214C6.43799 44.4214 7.62207 44.8926 8.6084 45.835C9.59473 46.7725 10.0879 48.0786 10.0879 49.7534C10.0879 50.1685 10.061 50.5566 10.0073 50.918C9.96826 51.1914 9.91455 51.4307 9.84619 51.6357C9.72412 52.0068 9.65332 52.2144 9.63379 52.2583C9.33105 52.7905 9.021 53.2178 8.70361 53.54C8.38623 53.8623 8.02734 54.1357 7.62695 54.3604C7.40234 54.4824 6.99707 54.6216 6.41113 54.7778C6.03516 54.8804 5.5957 54.9316 5.09277 54.9316ZM1.00586 49.9438C1.00586 50.3687 1.10596 50.7446 1.30615 51.0718C1.50146 51.3989 1.71875 51.6455 1.95801 51.8115C2.36328 52.0898 2.80762 52.2876 3.29101 52.4048C3.76953 52.522 4.35303 52.5806 5.0415 52.5806C5.46142 52.5806 5.76172 52.5635 5.94238 52.5293C6.00098 52.5195 6.10107 52.5049 6.24267 52.4854C6.604 52.4414 6.86767 52.3901 7.03369 52.3315C7.65381 52.1216 8.03711 51.9727 8.18359 51.8848C8.43262 51.7383 8.6792 51.521 8.92334 51.2329C9.05029 51.0864 9.16748 50.874 9.2749 50.5957C9.37744 50.3174 9.42871 50.0391 9.42871 49.7607C9.42871 49.2334 9.30664 48.7451 9.0625 48.2959C8.81348 47.8418 8.39355 47.478 7.80273 47.2046C7.21191 46.9312 6.44287 46.7944 5.4956 46.7944C5.10498 46.7944 4.57519 46.8213 3.90625 46.875L3.76709 46.9116C3.72803 46.9263 3.62793 46.9507 3.4668 46.9849C2.66601 47.1655 2.05566 47.5122 1.63574 48.0249C1.21582 48.5327 1.00586 49.1724 1.00586 49.9438ZM9.35547 43.3374C9.33594 43.2642 9.30664 43.1128 9.26758 42.8833C9.18945 42.4292 9.08447 42.1313 8.95264 41.9897C8.86963 41.9019 8.71094 41.8457 8.47656 41.8213C8.41797 41.8164 7.67334 41.7993 6.24267 41.77L5.43701 41.7773L4.46289 41.77L1.96533 41.7993L1.67236 41.792C1.54541 41.792 1.44775 41.8262 1.37939 41.8945C1.34521 41.9287 1.32812 42.0239 1.32812 42.1802C1.32812 42.3071 1.34277 42.4536 1.37207 42.6196C1.38183 42.8345 1.40137 43.0273 1.43066 43.1982C1.43555 43.2275 1.44287 43.2739 1.45264 43.3374L0.808104 43.3447C0.715331 43.0566 0.624999 42.644 0.537108 42.1069C0.390624 41.2183 0.317381 40.1245 0.317381 38.8257C0.317381 37.7417 0.378416 36.9482 0.500487 36.4453C0.690916 35.6836 0.974119 35.0635 1.3501 34.585C1.85303 33.9453 2.43652 33.4668 3.10058 33.1494C3.75976 32.8271 4.47998 32.666 5.26123 32.666C6.24756 32.666 7.09472 32.8809 7.80273 33.3105C8.50586 33.7402 9.06982 34.3579 9.49463 35.1636C9.79736 35.73 9.94873 36.499 9.94873 37.4707L9.88281 38.9722L9.86084 39.4116L9.87549 40.0049L9.86084 40.1807L9.87549 40.7959L9.86816 41.6089C9.86816 41.6382 9.88525 41.8872 9.91943 42.356C9.9292 42.5122 9.93652 42.7173 9.9414 42.9712C9.9414 43.1274 9.94385 43.2446 9.94873 43.3228C9.84131 43.3325 9.64355 43.3374 9.35547 43.3374ZM1.19629 39.7852C1.34765 39.7998 1.45508 39.8071 1.51855 39.8071L2.76367 39.7852L3.84765 39.7998C4.19922 39.7852 4.50683 39.7778 4.77051 39.7778L5.46631 39.7852L6.63086 39.7705L7.34863 39.7852C8.01758 39.7852 8.47168 39.6606 8.71094 39.4116C9.05273 39.0503 9.22363 38.5522 9.22363 37.9175C9.22363 37.4341 9.17724 37.0776 9.08447 36.8481C8.89892 36.3696 8.65234 35.9912 8.34472 35.7129C8.03711 35.4297 7.60254 35.2148 7.04101 35.0684C6.47461 34.9219 5.89111 34.8486 5.29053 34.8486C4.3042 34.8486 3.49853 35.0073 2.87353 35.3247C2.24853 35.6372 1.77978 36.0669 1.46728 36.6138C1.1499 37.1606 0.991209 37.7881 0.991209 38.4961C0.991209 38.9941 1.05957 39.4238 1.19629 39.7852ZM1.08642 31.7065L0.507811 31.7285C0.502928 31.6406 0.500486 31.5503 0.500486 31.4575C0.500486 31.2134 0.507811 30.957 0.522459 30.6885C0.556639 30.0439 0.573728 29.6655 0.573728 29.5532C0.573728 29.1626 0.566404 28.7817 0.551756 28.4106C0.532225 28.0347 0.520017 27.7026 0.515135 27.4146C0.510252 27.1216 0.505369 26.9238 0.500486 26.8213L0.588377 26.8286L1.02051 26.814L1.0791 26.814C1.11816 27.0874 1.13769 27.3706 1.13769 27.6636C1.13769 27.937 1.1914 28.1177 1.29883 28.2056C1.36719 28.2642 1.65771 28.2935 2.17041 28.2935C2.32666 28.2935 2.45361 28.291 2.55127 28.2861L2.81494 28.2788L3.50342 28.2935L4.08935 28.2495L5.35644 28.2788L7.19482 28.1836C7.72705 28.1592 8.16894 28.042 8.52051 27.832C8.77929 27.6758 8.98193 27.4561 9.12842 27.1729C9.33349 26.7627 9.43603 26.3599 9.43603 25.9644C9.43603 25.4956 9.375 25.0586 9.25293 24.6533C9.18457 24.4141 9.0747 24.1895 8.92334 23.9795C8.76709 23.7646 8.62549 23.6157 8.49853 23.5327C8.22998 23.3569 7.97851 23.2349 7.74414 23.1665C7.42187 23.0737 6.92138 23.0273 6.24267 23.0273C5.06103 23.0273 3.73047 23.0908 2.25097 23.2178L1.86279 23.2471C1.5747 23.2617 1.38183 23.3154 1.28418 23.4082C1.13281 23.5645 1.05713 23.7402 1.05713 23.9355L1.07178 24.624L1.0498 24.7192L0.493162 24.7046L0.493162 24.126L0.551756 22.7271C0.551756 22.2583 0.529783 21.8115 0.485838 21.3867L0.500486 21.2622C0.661619 21.2329 0.773923 21.2183 0.8374 21.2183C0.891111 21.2183 0.957029 21.228 1.03515 21.2476C1.08886 21.4282 1.1206 21.6187 1.13037 21.8188C1.17431 22.146 1.21094 22.3267 1.24023 22.3608C1.29883 22.4292 1.38916 22.4634 1.51123 22.4634C1.59912 22.4634 1.72607 22.4561 1.89209 22.4414C2.01416 22.4268 2.22656 22.4194 2.52929 22.4194C2.70019 22.4194 2.83447 22.4194 2.93213 22.4194C3.02978 22.4146 3.12988 22.4097 3.23242 22.4048C3.58398 22.3901 3.94043 22.3779 4.30176 22.3682L5.78857 22.2949C6.78467 22.2949 7.45117 22.3291 7.78808 22.3975C8.125 22.4658 8.39111 22.5586 8.58642 22.6758C8.87939 22.8564 9.15039 23.1128 9.39941 23.4448C9.64355 23.7769 9.83886 24.1919 9.98535 24.6899C10.127 25.188 10.1978 25.769 10.1978 26.4331C10.1978 27.1899 10.0977 27.8394 9.89746 28.3813C9.69238 28.9233 9.42627 29.3335 9.09912 29.6118C8.76709 29.8853 8.3374 30.0732 7.81006 30.1758C7.44873 30.249 6.93115 30.2856 6.25732 30.2856L2.76367 30.2783C1.93847 30.2783 1.47217 30.3174 1.36474 30.3955C1.21338 30.5029 1.12793 30.8374 1.1084 31.3989C1.1084 31.521 1.10107 31.6235 1.08642 31.7065ZM0.624997 11.5796C0.771482 11.5161 1.18896 11.3867 1.87744 11.1914C2.18994 11.1035 2.52197 11.0571 2.87353 11.0522L2.87353 11.7187C2.20947 12.1875 1.7334 12.6709 1.44531 13.1689C1.15234 13.667 1.00586 14.2236 1.00586 14.8389C1.00586 15.5957 1.30127 16.2061 1.89209 16.6699C2.69287 17.2998 3.80859 17.6147 5.23926 17.6147C6.06933 17.6147 6.66015 17.561 7.01172 17.4536C7.58301 17.2778 8.04931 17.0557 8.41064 16.7871C8.68408 16.582 8.90136 16.3135 9.0625 15.9814C9.28222 15.5518 9.39209 15.0928 9.39209 14.6045C9.39209 14.0674 9.22607 13.5498 8.89404 13.0518C8.55713 12.5488 8.05664 12.0679 7.39258 11.6089C7.3584 11.4282 7.33886 11.1914 7.33398 10.8984C7.51953 10.918 7.7124 10.9497 7.91259 10.9937C7.99072 11.0083 8.30078 11.0645 8.84277 11.1621L9.0625 11.228L9.40674 11.3306C9.63623 11.6284 9.80957 12.0483 9.92676 12.5903C10.0391 13.1274 10.0952 13.7891 10.0952 14.5752C10.0952 15.1758 10.0391 15.7446 9.92676 16.2817C9.81445 16.814 9.63623 17.2705 9.39209 17.6514C9.04052 18.208 8.65967 18.645 8.24951 18.9624C7.83935 19.2798 7.39258 19.5166 6.90918 19.6729C6.42578 19.8242 5.88379 19.8999 5.2832 19.8999C3.82812 19.8999 2.62695 19.4214 1.67969 18.4644C0.732419 17.5024 0.258786 16.2769 0.258786 14.7876C0.258786 14.1821 0.290525 13.6133 0.354001 13.0811C0.412595 12.5439 0.502927 12.0435 0.624997 11.5796ZM0.0610323 9.63135L0.0610323 9.17725C0.114743 9.14307 0.153806 9.11865 0.17822 9.104C0.412595 8.96729 0.566403 8.8623 0.639646 8.78906C0.659177 8.72559 0.668942 8.39111 0.668942 7.78564C0.668942 7.40967 0.666501 7.0752 0.661618 6.78223L0.639645 6.63574L0.632321 5.74951L0.64697 4.09424L0.646969 1.83105L0.581051 1.39893C0.537106 1.33545 0.419919 1.26709 0.229489 1.19385C0.185544 1.17432 0.124508 1.14746 0.0463835 1.11328L0.0390593 0.791015C0.0390593 0.742187 0.0415007 0.668945 0.0463835 0.571289C0.383298 0.566406 0.89111 0.563965 1.56982 0.563965L2.22168 0.55664L2.59521 0.563965C2.72216 0.563965 2.83203 0.57373 2.9248 0.593261C2.98828 0.793457 3.02734 0.969238 3.04199 1.12061C2.85156 1.24756 2.57568 1.38672 2.21435 1.53809C1.85302 1.68457 1.65283 1.77734 1.61377 1.81641C1.55029 1.875 1.50879 1.94336 1.48925 2.02148C1.46484 2.13867 1.45263 2.65625 1.45263 3.57422C1.45263 3.71094 1.4624 3.88184 1.48193 4.08691C1.67236 4.11621 1.82861 4.13086 1.95068 4.13086L2.93213 4.12353L5.08545 4.12353L7.40722 4.09424L8.35937 4.10156C8.69629 4.10156 8.95019 4.07227 9.12109 4.01367C9.15527 3.93555 9.18701 3.7915 9.21631 3.58154C9.22119 3.54248 9.26025 3.36182 9.33349 3.03955C9.36767 2.89307 9.40674 2.76367 9.45068 2.65137C9.62646 2.62695 9.73388 2.61475 9.77295 2.61475C9.81689 2.61475 9.88037 2.62207 9.96338 2.63672C9.96826 2.74414 9.9707 2.83203 9.9707 2.90039C9.9707 3.40332 9.95361 3.83057 9.91943 4.18213C9.88037 4.53369 9.86084 5.1709 9.86084 6.09375C9.86084 6.24023 9.89013 6.66992 9.94873 7.38281C9.96826 7.66113 9.97802 7.8418 9.97802 7.9248C9.90478 7.92969 9.84863 7.93457 9.80957 7.93945L9.64111 7.94678L9.58252 7.94678C9.44092 7.83935 9.33593 7.63672 9.26758 7.33887C9.1455 6.83105 9.03564 6.47949 8.93799 6.28418C8.84521 6.23535 8.72314 6.20605 8.57177 6.19629C7.98584 6.16211 7.05322 6.14502 5.77392 6.14502L3.00537 6.18164C2.24365 6.18164 1.78222 6.19629 1.62109 6.22559C1.57715 6.23535 1.54541 6.25244 1.52588 6.27686C1.50146 6.30127 1.48681 6.33545 1.48193 6.37939C1.4624 6.53076 1.45263 7.02393 1.45263 7.85889C1.45263 8.31787 1.49658 8.62549 1.58447 8.78174C1.70654 8.9917 2.03857 9.30664 2.58056 9.72656C2.73681 9.84863 2.81494 9.93896 2.81494 9.99756C2.69775 10.2222 2.60254 10.3662 2.52929 10.4297C2.21191 10.2783 1.57715 10.0684 0.624997 9.7998C0.346677 9.72168 0.158689 9.66553 0.0610323 9.63135Z" fill="url(#paint0_linear)"/>
<defs>
<linearGradient id="paint0_linear" x1="2.06382" y1="75" x2="5.27953" y2="-8.98432" gradientUnits="userSpaceOnUse">
<stop stop-color="#8A5E1D"/>
<stop offset="1" stop-color="#406F2B"/>
</linearGradient>
</defs>
</svg>
