<svg width="15" height="60" viewBox="0 0 15 60" fill="none" xmlns="http://www.w3.org/2000/svg">
<path d="M5.845 52.41C4.965 50.9 3.91 49.685 2.68 48.765L2.68 55.2C2.9 55.38 3.125 55.575 3.355 55.785C4.315 54.815 5.145 53.69 5.845 52.41ZM6.58 52.395C7.23 53.565 7.83 54.99 8.38 56.67L8.38 48.075C7.81 49.765 7.21 51.205 6.58 52.395ZM6.19 51.735C6.98 50.145 7.725 48.13 8.425 45.69L9.07 45.885C8.88 46.545 8.675 47.21 8.455 47.88L14.11 47.88L14.11 48.615L13.3 48.615L13.3 56.385L14.11 56.385L14.11 57.12L8.53 57.12C8.68 57.57 8.865 58.205 9.085 59.025L8.41 59.19C7.74 56.65 7.005 54.61 6.205 53.07C5.525 54.25 4.73 55.315 3.82 56.265C4.63 57.115 5.315 57.99 5.875 58.89L5.26 59.19C3.97 57.17 2.435 55.66 0.655 54.66L0.849999 53.97C1.19 54.16 1.585 54.41 2.035 54.72L2.035 47.91L2.68 47.91C4.06 48.9 5.23 50.175 6.19 51.735ZM12.685 48.615L8.995 48.615L8.995 56.385L12.685 56.385L12.685 48.615ZM7.33 35.04L7.33 32.085L5.905 32.085L5.905 35.04L7.33 35.04ZM9.31 35.04L9.31 32.085L7.885 32.085L7.885 35.04L9.31 35.04ZM7.885 38.97L9.31 38.97L9.31 35.76L7.885 35.76L7.885 38.97ZM7.33 38.97L7.33 35.76L5.905 35.76L5.905 38.97L7.33 38.97ZM11.68 31.095L11.68 35.04L13.075 35.04L13.075 30.615L13.72 30.615L13.72 40.665L13.075 40.665L13.075 35.76L11.68 35.76L11.68 39.975L11.065 39.975L11.065 35.76L9.895 35.76L9.895 38.97L9.895 39.675L5.32 39.675L5.32 35.76L4.285 35.76L4.285 40.32L3.67 40.32L3.67 35.76L2.305 35.76C2.405 36.95 2.48 38.26 2.53 39.69L1.885 39.69C1.795 36.28 1.52 33.545 1.06 31.485L1.69 31.38C1.93 32.46 2.115 33.68 2.245 35.04L3.67 35.04L3.67 30.945L4.285 30.945L4.285 35.04L5.32 35.04L5.32 31.38L9.895 31.38L9.895 35.04L11.065 35.04L11.065 31.095L11.68 31.095ZM4.795 40.125L5.455 40.125L5.455 41.565C5.705 41.445 6.12 41.25 6.7 40.98C7.28 40.71 7.805 40.465 8.275 40.245C8.735 40.025 9.015 39.89 9.115 39.84L9.43 40.395C9.35 40.425 9.165 40.505 8.875 40.635C8.585 40.765 8.215 40.935 7.765 41.145C7.315 41.345 6.95 41.505 6.67 41.625L14.245 41.625L14.245 42.33L7.09 42.33C8.63 42.76 10.06 43.355 11.38 44.115L10.735 44.565C9.005 43.545 7.245 42.84 5.455 42.45L5.455 44.265L4.795 44.265L4.795 42.33L2.29 42.33C2.4 42.92 2.49 43.5 2.56 44.07L1.945 44.145C1.765 42.705 1.47 41.29 1.06 39.9L1.645 39.72C1.825 40.3 1.995 40.935 2.155 41.625L4.795 41.625L4.795 40.125ZM9.58 16.935L9.58 19.83L11.08 19.83L11.08 16.935L9.58 16.935ZM8.995 16.935L7.495 16.935L7.495 19.83L8.995 19.83L8.995 16.935ZM9.58 23.43L11.08 23.43L11.08 20.535L9.58 20.535L9.58 23.43ZM8.995 23.43L8.995 20.535L7.495 20.535L7.495 23.43L8.995 23.43ZM3.565 21.57L3.565 18.75L2.38 18.75L2.38 21.57L3.565 21.57ZM4.15 21.57L5.335 21.57L5.335 18.75L4.15 18.75L4.15 21.57ZM12.985 28.23L12.985 25.62L10.495 25.62L10.495 28.23L12.985 28.23ZM5.935 15.555L5.935 19.83L6.91 19.83L6.91 16.23L11.08 16.23L11.08 15.405L11.695 15.405L11.695 16.23L12.655 16.23C13.305 16.23 13.71 16.29 13.87 16.41C14.04 16.53 14.125 16.845 14.125 17.355C14.125 17.595 14.1 18.205 14.05 19.185L13.42 19.2C13.46 18.51 13.48 17.965 13.48 17.565C13.48 17.255 13.445 17.075 13.375 17.025C13.305 16.965 13.065 16.935 12.655 16.935L11.695 16.935L11.695 23.43L14.245 23.43L14.245 24.135L11.695 24.135L11.695 24.96L13.63 24.96L13.63 28.23L14.32 28.23L14.32 28.905L9.865 28.905L9.865 24.96L11.08 24.96L11.08 24.135L6.91 24.135L6.91 20.535L5.935 20.535L5.935 24.645L5.335 24.645L5.335 22.305L4.15 22.305L4.15 24.075L3.565 24.075L3.565 22.305L2.38 22.305L2.38 24.3L1.78 24.3L1.78 22.305L0.819998 22.305L0.819998 21.57L1.78 21.57L1.78 18.75L0.819998 18.75L0.819998 18.03L1.78 18.03L1.78 15.9L2.38 15.9L2.38 18.03L3.565 18.03L3.565 16.125L4.15 16.125L4.15 18.03L5.335 18.03L5.335 15.555L5.935 15.555ZM2.08 28.905L1.45 28.905L1.45 24.975L2.08 24.975L2.08 28.905ZM4.165 29.25L3.52 29.25L3.52 24.63L4.165 24.63L4.165 29.25ZM6.28 28.815L5.635 28.815L5.635 25.035L6.28 25.035L6.28 28.815ZM8.38 28.815L7.75 28.815L7.75 25.035L8.38 25.035L8.38 28.815ZM8.515 12.435C7.025 11.075 5.215 10.23 3.085 9.9L3.16 9.21C3.85 9.32 4.5 9.475 5.11 9.675C6.1 8.905 7.245 8.205 8.545 7.575L8.905 8.13C7.715 8.71 6.695 9.315 5.845 9.945C6.985 10.425 8.015 11.075 8.935 11.895L8.515 12.435ZM8.53 5.955C7.01 4.785 5.195 4.075 3.085 3.825L3.145 3.135C3.745 3.205 4.385 3.33 5.065 3.51C6.065 2.62 7.24 1.815 8.59 1.095L8.905 1.665C7.685 2.325 6.645 3.01 5.785 3.72C6.885 4.09 7.93 4.65 8.92 5.4L8.53 5.955ZM10.345 6.42L12.925 6.42L12.925 0.824999L13.57 0.824998L13.57 12.72L12.925 12.72L12.925 7.14L10.345 7.14L10.345 11.58L9.73 11.58L9.73 7.14L2.95 7.14L2.95 6.42L9.73 6.42L9.73 1.695L10.345 1.695L10.345 6.42ZM2.53 1.095L2.53 12.555L6.535 12.555C9.505 12.555 12.005 13.025 14.035 13.965L13.525 14.52C11.595 13.68 9.145 13.26 6.175 13.26L1.885 13.26L1.885 7.545L0.519997 7.545L0.519997 6.795L1.885 6.795L1.885 1.095L2.53 1.095Z" fill="url(#paint0_linear)"/>
<defs>
<linearGradient id="paint0_linear" x1="3.85105" y1="60" x2="5.37367" y2="-7.25149" gradientUnits="userSpaceOnUse">
<stop stop-color="#8A5E1D"/>
<stop offset="1" stop-color="#406F2B"/>
</linearGradient>
</defs>
</svg>
