<svg width="318" height="28" viewBox="0 0 318 28" fill="none" xmlns="http://www.w3.org/2000/svg">
<path d="M0.220215 2.53613L0.140137 1.13477H1.8418L2.42236 1.11475C3.22314 1.07471 3.77702 1.05469 4.08398 1.05469C4.24414 1.05469 4.71126 1.06803 5.48535 1.09473C5.65885 1.10807 5.80566 1.11475 5.92578 1.11475C6.0459 1.11475 6.46631 1.1014 7.18701 1.07471C7.90771 1.04801 8.31478 1.03467 8.4082 1.03467C8.55501 1.03467 8.76188 1.04134 9.02881 1.05469C11.0841 2.92318 12.7591 4.53141 14.0537 5.87939C15.3483 7.22738 20.0729 11.9453 28.2275 20.0332V19.5327L28.1475 17.2104C28.1074 15.8491 28.054 14.7747 27.9873 13.9873C27.9206 13.1865 27.8805 12.2389 27.8672 11.1445C27.8538 10.0368 27.8071 9.03581 27.7271 8.1416C27.5669 6.39323 27.4868 5.38558 27.4868 5.11865C27.4735 4.25114 27.38 3.72396 27.2065 3.53711C26.9263 3.24349 26.2856 3.02327 25.2847 2.87646C24.5506 2.75635 24.0034 2.60286 23.6431 2.41602L23.6631 1.23486L24.1836 1.1748L28.1274 1.05469L32.5317 0.93457C32.8254 0.921224 33.1056 0.914551 33.3726 0.914551L33.3926 2.21582C33.0856 2.37598 32.772 2.49609 32.4517 2.57617C31.5975 2.77637 31.1037 2.9165 30.9702 2.99658C30.2896 3.38363 29.9225 3.61719 29.8691 3.69727C29.749 3.85742 29.689 4.10433 29.689 4.43799C29.689 4.51807 29.7023 4.79834 29.729 5.27881C29.7424 5.51904 29.749 6.07959 29.749 6.96045C29.7624 8.89567 29.8158 10.4238 29.9092 11.5449C29.9359 11.9053 29.9559 12.3123 29.9692 12.7661L30.1895 19.793C30.2028 20.2868 30.2095 20.6338 30.2095 20.834V23.2964L30.2695 24.3374L30.2095 25.4185C30.2629 25.9657 30.2896 26.2926 30.2896 26.3994V27.4604L27.9873 27.5405L25.605 25.0781L20.7402 20.2534L17.3369 16.8501L14.8345 14.2876C13.2062 12.686 11.7248 11.278 10.3901 10.0635L7.12695 7.12061L7.30713 14.5679C7.32048 15.0216 7.32715 15.4888 7.32715 15.9692L7.30713 17.3906L7.42725 20.0132C7.46729 21.1076 7.54069 22.2954 7.64746 23.5767C7.67415 23.9237 7.70752 24.1706 7.74756 24.3174C7.7876 24.4508 7.86768 24.651 7.98779 24.918C8.5083 25.1048 9.64274 25.245 11.3911 25.3384C11.5112 25.3651 11.6847 25.4118 11.9116 25.4785L11.9917 27.1001L11.2109 27.1201C10.7839 27.1201 9.43587 27.02 7.16699 26.8198C5.04492 26.8465 3.63021 26.8866 2.92285 26.9399C2.21549 26.9933 1.82845 27.02 1.76172 27.02C1.60156 27.02 1.38135 26.9933 1.10107 26.9399C1.07438 26.633 1.06104 26.366 1.06104 26.1392C1.06104 25.9924 1.06771 25.7521 1.08105 25.4185C1.45475 25.3517 1.76172 25.3184 2.00195 25.3184C2.08203 25.3184 2.34229 25.3317 2.78271 25.3584C3.90381 25.3584 4.56445 25.2783 4.76465 25.1182C4.97819 24.9447 5.09831 24.4909 5.125 23.7568C5.21842 21.6348 5.26514 20.3402 5.26514 19.873V18.772L5.30518 12.2656L5.24512 8.20166C5.23177 6.65348 5.13167 5.5791 4.94482 4.97852C4.86475 4.67155 4.71126 4.40462 4.48438 4.17773C4.01725 3.69727 3.49674 3.33691 2.92285 3.09668C2.57585 2.94987 1.67497 2.76302 0.220215 2.53613ZM53.1118 23.1162L53.5723 23.4165C53.6924 23.5099 53.7658 23.6234 53.7925 23.7568L53.8125 23.8569C53.4922 25.0448 53.0718 25.8656 52.5513 26.3193C52.0308 26.7598 51.3835 26.98 50.6094 26.98C49.8219 26.98 49.1413 26.7664 48.5674 26.3394C48.0068 25.8989 47.493 25.1315 47.0259 24.0371C46.452 25.0514 45.6445 25.8188 44.6035 26.3394C43.5625 26.8465 42.2879 27.1001 40.7798 27.1001C39.3918 27.1001 38.3708 26.8132 37.7168 26.2393C37.0628 25.652 36.7358 24.8846 36.7358 23.937C36.7358 23.4966 36.8293 23.0495 37.0161 22.5957C37.2163 22.1419 37.5299 21.6948 37.957 21.2544C38.3975 20.8006 39.0981 20.3068 40.0591 19.7729C40.2059 19.6929 40.7131 19.466 41.5806 19.0923L46.5654 17.0903C46.6055 16.5832 46.6255 16.0693 46.6255 15.5488C46.6255 13.7471 46.4053 12.5192 45.9648 11.8652C45.6979 11.4648 45.2308 11.2646 44.5635 11.2646C43.8962 11.2646 43.2822 11.3914 42.7217 11.645C42.1611 11.8986 41.7541 12.2256 41.5005 12.626C41.3136 12.9196 41.1535 13.4735 41.02 14.2876C40.9266 14.8748 40.8398 15.2152 40.7598 15.3086C40.5596 15.5622 40.1925 15.7957 39.6587 16.0093C39.1382 16.2095 38.7845 16.3563 38.5977 16.4497C37.877 16.7967 37.3031 16.9702 36.876 16.9702C36.6891 16.8101 36.5957 16.5832 36.5957 16.2896C36.5957 15.5288 36.7559 14.8748 37.0762 14.3276C37.5566 13.5535 38.2773 12.8062 39.2383 12.0854C40.2126 11.3514 41.1201 10.8376 41.9609 10.5439C43.1087 10.1702 44.5101 9.9834 46.165 9.9834C47.2327 9.9834 48.147 10.1836 48.9077 10.584C49.6818 10.971 50.2157 11.5516 50.5093 12.3257C50.8162 13.0998 50.9697 14.4945 50.9697 16.5098L50.9097 19.813L50.9497 22.2354V22.856C50.9497 23.4165 51.0231 23.8035 51.1699 24.0171C51.3301 24.2173 51.5303 24.3174 51.7705 24.3174C51.9173 24.3174 52.0441 24.2773 52.1509 24.1973L52.7515 23.2563L53.1118 23.1162ZM46.5454 18.4717C45.7847 18.7253 44.9238 19.1523 43.9629 19.7529C43.0153 20.3402 42.3547 20.9341 41.981 21.5347C41.714 21.9751 41.5806 22.5156 41.5806 23.1562C41.5806 23.7301 41.7541 24.2039 42.1011 24.5776C42.4481 24.9513 42.8485 25.1382 43.3022 25.1382C44.0496 25.1382 44.6836 24.9246 45.2041 24.4976C45.9115 23.9237 46.3252 23.4699 46.4453 23.1362C46.5654 22.7892 46.6255 21.8216 46.6255 20.2334C46.6255 19.6462 46.5988 19.0589 46.5454 18.4717ZM55.4341 11.7051C57.009 11.0378 58.1434 10.3838 58.8374 9.74316C59.5448 9.10254 60.2988 8.06152 61.0996 6.62012H62.2207C62.3408 6.96712 62.4009 7.33415 62.4009 7.72119C62.4009 8.4152 62.3942 8.95573 62.3809 9.34277L62.3208 10.5239C62.3208 10.5907 62.3275 10.7441 62.3408 10.9844L62.8013 11.0044C62.868 11.0044 63.4953 10.9777 64.6831 10.9243C64.7765 10.9243 65.277 10.911 66.1846 10.8843C66.2646 11.2446 66.3047 11.5649 66.3047 11.8452C66.3047 12.1522 66.258 12.5125 66.1646 12.9263C65.7241 12.9797 65.3905 13.0063 65.1636 13.0063C65.0568 13.0063 64.8433 12.993 64.5229 12.9663H63.4819L63.1216 12.9463L62.1606 12.9863L62.1206 20.6338C62.1073 22.1152 62.134 23.0428 62.2007 23.4165C62.2808 23.7769 62.4409 24.1239 62.6812 24.4575C62.9881 24.6043 63.3285 24.6777 63.7021 24.6777C64.0625 24.6777 64.3294 24.6444 64.5029 24.5776C64.6764 24.5109 64.9701 24.3174 65.3838 23.9971C65.4639 23.9303 65.5907 23.8369 65.7642 23.7168C66.0845 23.9704 66.3447 24.224 66.5449 24.4775L66.625 24.7178C66.1579 25.4518 65.4972 26.0324 64.6431 26.4595C63.8022 26.8732 62.9014 27.0801 61.9404 27.0801C60.6992 27.0801 59.6916 26.6864 58.9175 25.8989C58.1434 25.1115 57.7563 23.8903 57.7563 22.2354L57.8364 18.7119V13.0063L57.2158 12.9863L55.7744 13.0063L55.5142 12.9463C55.4341 12.8262 55.394 12.7127 55.394 12.606C55.394 12.5259 55.4074 12.2256 55.4341 11.7051ZM68.0063 10.6641C68.1532 10.6107 68.2733 10.5706 68.3667 10.5439H74.3325L74.7729 10.584L74.793 11.9253L74.7529 13.8872L74.7729 14.9082L74.7529 17.9312V19.9932C74.7529 21.3411 74.8263 22.4022 74.9731 23.1763C75.1733 23.7635 75.4937 24.2106 75.9341 24.5176C76.3879 24.8112 76.9351 24.958 77.5757 24.958C78.1763 24.958 78.6634 24.8979 79.0371 24.7778C79.4108 24.6577 79.8379 24.4308 80.3184 24.0972C80.8122 23.7635 81.1258 23.5233 81.2593 23.3765C81.6463 22.9494 81.9132 22.5557 82.0601 22.1953L82.2002 17.2104C82.2269 16.6899 82.2402 16.2629 82.2402 15.9292C82.2402 15.5822 82.2269 15.1484 82.2002 14.6279C82.1868 14.0941 82.1802 13.7938 82.1802 13.7271L82.2002 12.9863L82.1602 12.5459C81.8398 12.3457 81.3927 12.2189 80.8188 12.1655L79.4775 12.0654C79.3975 12.0254 79.3241 11.9787 79.2573 11.9253C79.2039 11.6584 79.1772 11.4582 79.1772 11.3247C79.1772 11.1646 79.1973 10.9377 79.2373 10.644C79.6777 10.5773 80.0581 10.5439 80.3784 10.5439L83.4614 10.584C84.2889 10.584 85.3032 10.5706 86.5044 10.5439L86.5444 12.0454L86.4844 13.9673L86.5244 16.3696L86.5044 19.813L86.4644 21.3545L86.4844 22.3955C86.431 23.0895 86.4043 23.4832 86.4043 23.5767C86.4043 23.9103 86.4644 24.1572 86.5845 24.3174C86.7046 24.4775 86.818 24.5576 86.9248 24.5576L88.7666 24.4976L89.0068 24.5376C89.0469 25.0047 89.0669 25.2716 89.0669 25.3384C89.0669 25.4318 89.0469 25.5786 89.0068 25.7788C88.2995 25.8055 87.7923 25.8522 87.4854 25.9189C86.0573 26.2393 84.4958 26.7131 82.8008 27.3403L82 27.3003L81.98 24.0371C81.8198 24.1706 81.5863 24.3774 81.2793 24.6577C80.1048 25.6987 79.0972 26.4061 78.2563 26.7798C77.4155 27.1401 76.5347 27.3203 75.6138 27.3203C74.5194 27.3203 73.5718 27.0934 72.771 26.6396C71.9702 26.1859 71.383 25.6253 71.0093 24.958C70.729 24.4375 70.5422 23.6901 70.4487 22.7158C70.422 22.4622 70.4087 21.1543 70.4087 18.792L70.4287 18.1514C70.4954 16.8434 70.5288 15.8758 70.5288 15.2485C70.5288 14.1808 70.5088 13.4668 70.4688 13.1064C70.4554 12.9329 70.3887 12.7327 70.2686 12.5059C70.0817 12.4258 69.8615 12.3657 69.6079 12.3257C68.7537 12.1789 68.2199 12.0387 68.0063 11.9053C67.9396 11.8652 67.9062 11.7785 67.9062 11.645C67.9062 11.5649 67.9129 11.4582 67.9263 11.3247C67.953 11.1912 67.9797 10.971 68.0063 10.6641ZM90.5083 25.8989C90.6818 25.7521 90.9087 25.6453 91.189 25.5786C91.8696 25.4318 92.5169 25.1649 93.1309 24.7778C93.251 24.4575 93.311 23.3765 93.311 21.5347C93.311 18.158 93.2376 15.8758 93.0908 14.688C93.0641 14.4744 92.9574 14.2876 92.7705 14.1274C92.4368 13.9539 91.9831 13.8005 91.4092 13.667C91.1423 13.6003 90.9821 13.4535 90.9287 13.2266L90.8687 12.4858C91.8563 12.3524 92.7505 12.0187 93.5513 11.4849C94.3521 10.9377 94.9526 10.3838 95.353 9.82324C95.5666 9.51628 95.7534 9.28271 95.9136 9.12256L97.3149 9.0625C97.3817 9.36947 97.415 9.62305 97.415 9.82324C97.415 9.97005 97.4084 10.1502 97.395 10.3638C97.3817 10.8309 97.375 11.2179 97.375 11.5249C97.375 11.6717 97.3817 12.2256 97.395 13.1865C97.9422 12.2523 98.3426 11.625 98.5962 11.3047C98.7163 11.1579 99.07 10.8309 99.6572 10.3237C100.111 9.99007 100.625 9.82324 101.199 9.82324C101.906 9.82324 102.52 10.0635 103.041 10.5439C103.561 11.0244 103.821 11.5783 103.821 12.2056C103.821 12.8328 103.621 13.4001 103.221 13.9072C102.834 14.401 102.313 14.6479 101.659 14.6479C101.085 14.6479 100.485 14.4077 99.8574 13.9272C99.4837 13.6336 99.1834 13.4868 98.9565 13.4868L98.8164 13.5068C98.5361 13.6003 98.2826 13.8538 98.0557 14.2676C97.682 14.9349 97.4951 15.6289 97.4951 16.3496L97.5352 16.8901C97.5885 17.8778 97.6286 20.1934 97.6553 23.8369C97.6953 24.1706 97.8221 24.5042 98.0356 24.8379C98.2759 25.0247 98.5161 25.1582 98.7563 25.2383C99.0099 25.3184 99.4437 25.3851 100.058 25.4385C100.672 25.4919 101.045 25.5786 101.179 25.6987C101.312 25.8055 101.379 25.9857 101.379 26.2393C101.379 26.3861 101.339 26.5796 101.259 26.8198H99.377L95.5532 26.6196C94.5923 26.6196 93.7181 26.6597 92.9307 26.7397H92.5903C92.4969 26.7397 91.8029 26.7731 90.5083 26.8398C90.4683 26.6263 90.4482 26.4661 90.4482 26.3594C90.4482 26.2526 90.4683 26.0991 90.5083 25.8989ZM122.339 23.1162L122.8 23.4165C122.92 23.5099 122.993 23.6234 123.02 23.7568L123.04 23.8569C122.72 25.0448 122.299 25.8656 121.779 26.3193C121.258 26.7598 120.611 26.98 119.837 26.98C119.049 26.98 118.369 26.7664 117.795 26.3394C117.234 25.8989 116.721 25.1315 116.253 24.0371C115.68 25.0514 114.872 25.8188 113.831 26.3394C112.79 26.8465 111.515 27.1001 110.007 27.1001C108.619 27.1001 107.598 26.8132 106.944 26.2393C106.29 25.652 105.963 24.8846 105.963 23.937C105.963 23.4966 106.057 23.0495 106.244 22.5957C106.444 22.1419 106.757 21.6948 107.185 21.2544C107.625 20.8006 108.326 20.3068 109.287 19.7729C109.433 19.6929 109.941 19.466 110.808 19.0923L115.793 17.0903C115.833 16.5832 115.853 16.0693 115.853 15.5488C115.853 13.7471 115.633 12.5192 115.192 11.8652C114.925 11.4648 114.458 11.2646 113.791 11.2646C113.124 11.2646 112.51 11.3914 111.949 11.645C111.389 11.8986 110.982 12.2256 110.728 12.626C110.541 12.9196 110.381 13.4735 110.248 14.2876C110.154 14.8748 110.067 15.2152 109.987 15.3086C109.787 15.5622 109.42 15.7957 108.886 16.0093C108.366 16.2095 108.012 16.3563 107.825 16.4497C107.104 16.7967 106.531 16.9702 106.104 16.9702C105.917 16.8101 105.823 16.5832 105.823 16.2896C105.823 15.5288 105.983 14.8748 106.304 14.3276C106.784 13.5535 107.505 12.8062 108.466 12.0854C109.44 11.3514 110.348 10.8376 111.188 10.5439C112.336 10.1702 113.738 9.9834 115.393 9.9834C116.46 9.9834 117.375 10.1836 118.135 10.584C118.909 10.971 119.443 11.5516 119.737 12.3257C120.044 13.0998 120.197 14.4945 120.197 16.5098L120.137 19.813L120.177 22.2354V22.856C120.177 23.4165 120.251 23.8035 120.397 24.0171C120.558 24.2173 120.758 24.3174 120.998 24.3174C121.145 24.3174 121.272 24.2773 121.378 24.1973L121.979 23.2563L122.339 23.1162ZM115.773 18.4717C115.012 18.7253 114.151 19.1523 113.19 19.7529C112.243 20.3402 111.582 20.9341 111.208 21.5347C110.942 21.9751 110.808 22.5156 110.808 23.1562C110.808 23.7301 110.982 24.2039 111.329 24.5776C111.676 24.9513 112.076 25.1382 112.53 25.1382C113.277 25.1382 113.911 24.9246 114.432 24.4976C115.139 23.9237 115.553 23.4699 115.673 23.1362C115.793 22.7892 115.853 21.8216 115.853 20.2334C115.853 19.6462 115.826 19.0589 115.773 18.4717ZM123.621 25.999C123.914 25.7988 124.301 25.672 124.782 25.6187C125.703 25.5119 126.23 25.3717 126.363 25.1982C126.63 24.8512 126.764 24.1439 126.764 23.0762V17.4307L126.744 16.0894V12.0454L126.684 7.4209V6.62012C126.684 5.52572 126.597 4.71826 126.423 4.19775C125.956 3.91748 125.456 3.77734 124.922 3.77734C124.602 3.77734 124.301 3.74398 124.021 3.67725C123.981 3.34359 123.961 3.09668 123.961 2.93652C123.961 2.82975 123.974 2.70964 124.001 2.57617C125.055 2.45605 126.15 2.18913 127.284 1.77539C128.419 1.34831 129.286 0.914551 129.887 0.474121L130.447 0.454102C130.567 0.454102 130.741 0.460775 130.968 0.474121C131.035 5.09196 131.068 8.25505 131.068 9.96338C131.068 10.4705 131.061 10.8776 131.048 11.1846V11.3047L131.068 11.6851V20.5537L131.088 23.4766V23.957C131.088 24.5309 131.181 24.938 131.368 25.1782C131.528 25.3517 131.869 25.4585 132.389 25.4985C132.669 25.5252 133.223 25.592 134.051 25.6987C134.118 25.979 134.151 26.2059 134.151 26.3794C134.151 26.5129 134.138 26.6997 134.111 26.9399L132.529 26.8599C131.648 26.7931 130.541 26.7598 129.206 26.7598L128.465 26.7397C127.705 26.7397 126.604 26.7998 125.162 26.9199H123.701L123.621 25.999ZM169.025 1.375C169.198 1.77539 169.552 2.9165 170.086 4.79834C170.326 5.65251 170.453 6.56006 170.466 7.521H168.645C167.363 5.70589 166.042 4.40462 164.681 3.61719C163.319 2.81641 161.798 2.41602 160.116 2.41602C158.048 2.41602 156.379 3.22347 155.111 4.83838C153.39 7.02718 152.529 10.0768 152.529 13.9873C152.529 16.2562 152.676 17.8711 152.969 18.832C153.45 20.3936 154.057 21.6681 154.791 22.6558C155.352 23.4032 156.086 23.9971 156.993 24.4375C158.168 25.0381 159.422 25.3384 160.757 25.3384C162.225 25.3384 163.64 24.8846 165.001 23.9771C166.376 23.0562 167.69 21.6882 168.945 19.873C169.439 19.7796 170.086 19.7262 170.887 19.7129C170.833 20.2201 170.747 20.7472 170.626 21.2944C170.586 21.508 170.433 22.3555 170.166 23.8369L169.986 24.4375L169.706 25.3784C168.891 26.0057 167.744 26.4795 166.262 26.7998C164.794 27.1068 162.986 27.2603 160.837 27.2603C159.195 27.2603 157.64 27.1068 156.172 26.7998C154.718 26.4928 153.47 26.0057 152.429 25.3384C150.907 24.3774 149.713 23.3364 148.845 22.2153C147.978 21.0942 147.33 19.873 146.903 18.5518C146.49 17.2305 146.283 15.749 146.283 14.1074C146.283 10.1302 147.591 6.84701 150.207 4.25781C152.836 1.66862 156.186 0.374023 160.256 0.374023C161.911 0.374023 163.466 0.460775 164.921 0.634277C166.389 0.794434 167.757 1.04134 169.025 1.375ZM189.545 12.2856C190.399 13.1131 191.033 14.0674 191.447 15.1484C191.874 16.2161 192.087 17.2238 192.087 18.1714C192.087 19.9598 191.814 21.4012 191.267 22.4956C190.439 24.1506 189.325 25.3717 187.923 26.1592C186.522 26.9466 184.894 27.3403 183.039 27.3403C180.957 27.3403 179.188 26.8732 177.733 25.939C176.292 25.0047 175.258 23.9437 174.63 22.7559C174.016 21.568 173.709 20.0933 173.709 18.3315C173.709 17.4373 173.856 16.5431 174.15 15.6489C174.444 14.7414 174.844 13.9539 175.351 13.2866C175.872 12.6193 176.439 12.0588 177.053 11.605C177.947 10.9644 178.841 10.5106 179.735 10.2437C180.643 9.96338 181.737 9.82324 183.019 9.82324C185.808 9.82324 187.983 10.644 189.545 12.2856ZM178.594 19.2124C178.714 20.8674 178.801 21.8216 178.854 22.0752C179.028 22.9694 179.302 23.7368 179.675 24.3774C179.929 24.7912 180.349 25.1582 180.937 25.4785C181.524 25.7988 182.224 25.959 183.039 25.959C184.013 25.959 184.834 25.652 185.501 25.0381C186.168 24.4108 186.649 23.4365 186.942 22.1152C187.129 21.2477 187.223 19.8263 187.223 17.8511C187.223 15.422 186.822 13.707 186.021 12.7061C185.221 11.6917 184.166 11.1846 182.858 11.1846C181.831 11.1846 180.977 11.4715 180.296 12.0454C179.629 12.6193 179.161 13.4668 178.895 14.5879C178.721 15.3086 178.621 16.8501 178.594 19.2124ZM194.37 25.8989C194.543 25.7521 194.77 25.6453 195.05 25.5786C195.731 25.4318 196.378 25.1649 196.992 24.7778C197.112 24.4575 197.172 23.3765 197.172 21.5347C197.172 18.158 197.099 15.8758 196.952 14.688C196.925 14.4744 196.819 14.2876 196.632 14.1274C196.298 13.9539 195.844 13.8005 195.271 13.667C195.004 13.6003 194.843 13.4535 194.79 13.2266L194.73 12.4858C195.718 12.3524 196.612 12.0187 197.413 11.4849C198.213 10.9377 198.814 10.3838 199.214 9.82324C199.428 9.51628 199.615 9.28271 199.775 9.12256L201.176 9.0625C201.243 9.36947 201.276 9.62305 201.276 9.82324C201.276 9.97005 201.27 10.1502 201.256 10.3638C201.243 10.8309 201.236 11.2179 201.236 11.5249C201.236 11.6717 201.243 12.2256 201.256 13.1865C201.804 12.2523 202.204 11.625 202.458 11.3047C202.578 11.1579 202.931 10.8309 203.519 10.3237C203.972 9.99007 204.486 9.82324 205.06 9.82324C205.767 9.82324 206.381 10.0635 206.902 10.5439C207.422 11.0244 207.683 11.5783 207.683 12.2056C207.683 12.8328 207.482 13.4001 207.082 13.9072C206.695 14.401 206.174 14.6479 205.521 14.6479C204.947 14.6479 204.346 14.4077 203.719 13.9272C203.345 13.6336 203.045 13.4868 202.818 13.4868L202.678 13.5068C202.397 13.6003 202.144 13.8538 201.917 14.2676C201.543 14.9349 201.356 15.6289 201.356 16.3496L201.396 16.8901C201.45 17.8778 201.49 20.1934 201.517 23.8369C201.557 24.1706 201.683 24.5042 201.897 24.8379C202.137 25.0247 202.377 25.1582 202.618 25.2383C202.871 25.3184 203.305 25.3851 203.919 25.4385C204.533 25.4919 204.907 25.5786 205.04 25.6987C205.174 25.8055 205.24 25.9857 205.24 26.2393C205.24 26.3861 205.2 26.5796 205.12 26.8198H203.238L199.415 26.6196C198.454 26.6196 197.579 26.6597 196.792 26.7397H196.452C196.358 26.7397 195.664 26.7731 194.37 26.8398C194.33 26.6263 194.31 26.4661 194.31 26.3594C194.31 26.2526 194.33 26.0991 194.37 25.8989ZM209.805 16.2695C210.152 15.1351 210.459 14.381 210.726 14.0073C211.473 12.9129 212.267 12.0588 213.108 11.4448C213.962 10.8309 214.729 10.4238 215.41 10.2236C216.291 9.97005 217.005 9.84326 217.552 9.84326C218.807 9.84326 219.821 9.94336 220.595 10.1436C221.369 10.3304 222.017 10.604 222.537 10.9644C223.285 11.4849 223.885 12.012 224.339 12.5459C224.793 13.0798 225.16 13.707 225.44 14.4277C225.734 15.1484 225.894 16.0226 225.92 17.0503L223.698 17.0103C223.084 17.0103 221.736 16.9502 219.654 16.8301C218.88 16.7767 218.346 16.75 218.053 16.75C217.959 16.75 217.239 16.7567 215.891 16.77H214.169C214.142 16.9569 214.129 17.117 214.129 17.2505C214.129 17.9578 214.216 18.7052 214.389 19.4927C214.563 20.2668 214.823 20.9541 215.17 21.5547C215.517 22.1419 215.944 22.6491 216.451 23.0762C216.972 23.5033 217.506 23.8102 218.053 23.9971L219.214 24.3774C220.242 24.3774 220.929 24.3441 221.276 24.2773C221.917 24.1439 222.477 23.9771 222.958 23.7769C223.451 23.5633 224.045 23.2096 224.739 22.7158C225.22 23.0628 225.62 23.3765 225.94 23.6567C224.766 24.9513 223.545 25.8923 222.277 26.4795C221.022 27.0534 219.614 27.3403 218.053 27.3403C216.998 27.3403 216.138 27.2469 215.47 27.0601C214.576 26.8198 213.769 26.4528 213.048 25.959C212.327 25.4652 211.707 24.8512 211.186 24.1172C210.666 23.3831 210.278 22.6291 210.025 21.855C209.691 20.8407 209.524 20.0265 209.524 19.4126C209.524 18.2515 209.618 17.2038 209.805 16.2695ZM221.436 15.4087C221.423 14.6613 221.276 13.9473 220.996 13.2666C220.715 12.5859 220.282 12.0588 219.694 11.6851C219.107 11.298 218.513 11.1045 217.913 11.1045C217.018 11.1045 216.211 11.4982 215.49 12.2856C214.77 13.0731 214.362 14.1408 214.269 15.4888L218.833 15.5088C219.127 15.5088 219.541 15.4888 220.075 15.4487C220.462 15.4087 220.735 15.3887 220.896 15.3887C221.016 15.3887 221.196 15.3953 221.436 15.4087ZM262.156 1.375C262.329 1.77539 262.683 2.9165 263.217 4.79834C263.457 5.65251 263.584 6.56006 263.597 7.521H261.775C260.494 5.70589 259.173 4.40462 257.812 3.61719C256.45 2.81641 254.929 2.41602 253.247 2.41602C251.178 2.41602 249.51 3.22347 248.242 4.83838C246.521 7.02718 245.66 10.0768 245.66 13.9873C245.66 16.2562 245.806 17.8711 246.1 18.832C246.581 20.3936 247.188 21.6681 247.922 22.6558C248.482 23.4032 249.216 23.9971 250.124 24.4375C251.299 25.0381 252.553 25.3384 253.888 25.3384C255.356 25.3384 256.771 24.8846 258.132 23.9771C259.507 23.0562 260.821 21.6882 262.076 19.873C262.569 19.7796 263.217 19.7262 264.018 19.7129C263.964 20.2201 263.877 20.7472 263.757 21.2944C263.717 21.508 263.564 22.3555 263.297 23.8369L263.117 24.4375L262.836 25.3784C262.022 26.0057 260.875 26.4795 259.393 26.7998C257.925 27.1068 256.117 27.2603 253.968 27.2603C252.326 27.2603 250.771 27.1068 249.303 26.7998C247.848 26.4928 246.601 26.0057 245.56 25.3384C244.038 24.3774 242.844 23.3364 241.976 22.2153C241.109 21.0942 240.461 19.873 240.034 18.5518C239.62 17.2305 239.414 15.749 239.414 14.1074C239.414 10.1302 240.722 6.84701 243.337 4.25781C245.967 1.66862 249.317 0.374023 253.387 0.374023C255.042 0.374023 256.597 0.460775 258.052 0.634277C259.52 0.794434 260.888 1.04134 262.156 1.375ZM283.857 23.1162L284.317 23.4165C284.438 23.5099 284.511 23.6234 284.538 23.7568L284.558 23.8569C284.237 25.0448 283.817 25.8656 283.296 26.3193C282.776 26.7598 282.129 26.98 281.354 26.98C280.567 26.98 279.886 26.7664 279.312 26.3394C278.752 25.8989 278.238 25.1315 277.771 24.0371C277.197 25.0514 276.39 25.8188 275.349 26.3394C274.308 26.8465 273.033 27.1001 271.525 27.1001C270.137 27.1001 269.116 26.8132 268.462 26.2393C267.808 25.652 267.481 24.8846 267.481 23.937C267.481 23.4966 267.574 23.0495 267.761 22.5957C267.961 22.1419 268.275 21.6948 268.702 21.2544C269.143 20.8006 269.843 20.3068 270.804 19.7729C270.951 19.6929 271.458 19.466 272.326 19.0923L277.311 17.0903C277.351 16.5832 277.371 16.0693 277.371 15.5488C277.371 13.7471 277.15 12.5192 276.71 11.8652C276.443 11.4648 275.976 11.2646 275.309 11.2646C274.641 11.2646 274.027 11.3914 273.467 11.645C272.906 11.8986 272.499 12.2256 272.246 12.626C272.059 12.9196 271.899 13.4735 271.765 14.2876C271.672 14.8748 271.585 15.2152 271.505 15.3086C271.305 15.5622 270.938 15.7957 270.404 16.0093C269.883 16.2095 269.53 16.3563 269.343 16.4497C268.622 16.7967 268.048 16.9702 267.621 16.9702C267.434 16.8101 267.341 16.5832 267.341 16.2896C267.341 15.5288 267.501 14.8748 267.821 14.3276C268.302 13.5535 269.022 12.8062 269.983 12.0854C270.958 11.3514 271.865 10.8376 272.706 10.5439C273.854 10.1702 275.255 9.9834 276.91 9.9834C277.978 9.9834 278.892 10.1836 279.653 10.584C280.427 10.971 280.961 11.5516 281.254 12.3257C281.561 13.0998 281.715 14.4945 281.715 16.5098L281.655 19.813L281.695 22.2354V22.856C281.695 23.4165 281.768 23.8035 281.915 24.0171C282.075 24.2173 282.275 24.3174 282.516 24.3174C282.662 24.3174 282.789 24.2773 282.896 24.1973L283.497 23.2563L283.857 23.1162ZM277.291 18.4717C276.53 18.7253 275.669 19.1523 274.708 19.7529C273.76 20.3402 273.1 20.9341 272.726 21.5347C272.459 21.9751 272.326 22.5156 272.326 23.1562C272.326 23.7301 272.499 24.2039 272.846 24.5776C273.193 24.9513 273.594 25.1382 274.047 25.1382C274.795 25.1382 275.429 24.9246 275.949 24.4976C276.657 23.9237 277.07 23.4699 277.19 23.1362C277.311 22.7892 277.371 21.8216 277.371 20.2334C277.371 19.6462 277.344 19.0589 277.291 18.4717ZM285.779 25.8989C285.952 25.7521 286.179 25.6453 286.459 25.5786C287.14 25.4318 287.787 25.1649 288.401 24.7778C288.521 24.4575 288.582 23.3765 288.582 21.5347C288.582 18.158 288.508 15.8758 288.361 14.688C288.335 14.4744 288.228 14.2876 288.041 14.1274C287.707 13.9539 287.254 13.8005 286.68 13.667C286.413 13.6003 286.253 13.4535 286.199 13.2266L286.139 12.4858C287.127 12.3524 288.021 12.0187 288.822 11.4849C289.623 10.9377 290.223 10.3838 290.624 9.82324C290.837 9.51628 291.024 9.28271 291.184 9.12256L292.585 9.0625C292.652 9.36947 292.686 9.62305 292.686 9.82324C292.686 9.97005 292.679 10.1502 292.666 10.3638C292.652 10.8309 292.646 11.2179 292.646 11.5249C292.646 11.6717 292.652 12.2256 292.666 13.1865C293.213 12.2523 293.613 11.625 293.867 11.3047C293.987 11.1579 294.34 10.8309 294.928 10.3237C295.382 9.99007 295.895 9.82324 296.469 9.82324C297.177 9.82324 297.791 10.0635 298.311 10.5439C298.832 11.0244 299.092 11.5783 299.092 12.2056C299.092 12.8328 298.892 13.4001 298.491 13.9072C298.104 14.401 297.584 14.6479 296.93 14.6479C296.356 14.6479 295.755 14.4077 295.128 13.9272C294.754 13.6336 294.454 13.4868 294.227 13.4868L294.087 13.5068C293.807 13.6003 293.553 13.8538 293.326 14.2676C292.952 14.9349 292.766 15.6289 292.766 16.3496L292.806 16.8901C292.859 17.8778 292.899 20.1934 292.926 23.8369C292.966 24.1706 293.093 24.5042 293.306 24.8379C293.546 25.0247 293.787 25.1582 294.027 25.2383C294.28 25.3184 294.714 25.3851 295.328 25.4385C295.942 25.4919 296.316 25.5786 296.449 25.6987C296.583 25.8055 296.649 25.9857 296.649 26.2393C296.649 26.3861 296.609 26.5796 296.529 26.8198H294.647L290.824 26.6196C289.863 26.6196 288.989 26.6597 288.201 26.7397H287.861C287.767 26.7397 287.073 26.7731 285.779 26.8398C285.739 26.6263 285.719 26.4661 285.719 26.3594C285.719 26.2526 285.739 26.0991 285.779 25.8989ZM301.214 16.2695C301.561 15.1351 301.868 14.381 302.135 14.0073C302.882 12.9129 303.676 12.0588 304.517 11.4448C305.371 10.8309 306.139 10.4238 306.819 10.2236C307.7 9.97005 308.414 9.84326 308.961 9.84326C310.216 9.84326 311.23 9.94336 312.004 10.1436C312.778 10.3304 313.426 10.604 313.946 10.9644C314.694 11.4849 315.294 12.012 315.748 12.5459C316.202 13.0798 316.569 13.707 316.849 14.4277C317.143 15.1484 317.303 16.0226 317.33 17.0503L315.107 17.0103C314.493 17.0103 313.146 16.9502 311.063 16.8301C310.289 16.7767 309.756 16.75 309.462 16.75C309.368 16.75 308.648 16.7567 307.3 16.77H305.578C305.551 16.9569 305.538 17.117 305.538 17.2505C305.538 17.9578 305.625 18.7052 305.798 19.4927C305.972 20.2668 306.232 20.9541 306.579 21.5547C306.926 22.1419 307.353 22.6491 307.86 23.0762C308.381 23.5033 308.915 23.8102 309.462 23.9971L310.623 24.3774C311.651 24.3774 312.338 24.3441 312.685 24.2773C313.326 24.1439 313.886 23.9771 314.367 23.7769C314.861 23.5633 315.454 23.2096 316.148 22.7158C316.629 23.0628 317.029 23.3765 317.35 23.6567C316.175 24.9513 314.954 25.8923 313.686 26.4795C312.431 27.0534 311.023 27.3403 309.462 27.3403C308.408 27.3403 307.547 27.2469 306.879 27.0601C305.985 26.8198 305.178 26.4528 304.457 25.959C303.736 25.4652 303.116 24.8512 302.595 24.1172C302.075 23.3831 301.688 22.6291 301.434 21.855C301.1 20.8407 300.934 20.0265 300.934 19.4126C300.934 18.2515 301.027 17.2038 301.214 16.2695ZM312.845 15.4087C312.832 14.6613 312.685 13.9473 312.405 13.2666C312.125 12.5859 311.691 12.0588 311.104 11.6851C310.516 11.298 309.922 11.1045 309.322 11.1045C308.428 11.1045 307.62 11.4982 306.899 12.2856C306.179 13.0731 305.772 14.1408 305.678 15.4888L310.243 15.5088C310.536 15.5088 310.95 15.4888 311.484 15.4487C311.871 15.4087 312.145 15.3887 312.305 15.3887C312.425 15.3887 312.605 15.3953 312.845 15.4087Z" fill="#333333"/>
</svg>
